<svg version="1.1" id="Layer_1" xmlns:x="ns_extend;" xmlns:i="ns_ai;" xmlns:graph="ns_graphs;" xmlns="http://www.w3.org/2000/svg" xmlns:xlink="http://www.w3.org/1999/xlink" x="0px" y="0px" viewBox="0 0 137 43" style="enable-background:new 0 0 137 43;" xml:space="preserve">
 <style type="text/css">
  .st0{fill:#2D2D3A;}
 </style>
 <metadata>
  <sfw xmlns="ns_sfw;">
   <slices>
   </slices>
   <sliceSourceBounds bottomLeftOrigin="true" height="43" width="137" x="131.8" y="-221.8">
   </sliceSourceBounds>
  </sfw>
 </metadata>
 <g>
  <path class="st0" d="M83.2,21.6l-4.8-11.3h-3.8l6.8,15.4l-3.3,7.8h3.6l9.7-23.2h-3.7L83.2,21.6L83.2,21.6z M111.8,10.1
		c-2.4,0-4.4,1.1-5.6,2.9c-1-1.8-2.8-2.9-5.4-2.9c-2.1,0-3.8,0.8-4.8,2.3v-1.9h-3.5v16.2H96v-9c0-3,1.7-4.5,4-4.5
		c2.4,0,3.7,1.5,3.7,3.9v9.7h3.6v-9.2c0-2.9,1.7-4.4,3.9-4.4c2.5,0,3.8,1.6,3.8,4v9.5h3.6v-9.7C118.6,12.7,116.2,10.1,111.8,10.1
		L111.8,10.1z M70.2,4.6l-3.6,1.9v3.8h-2.8v3.1h2.8V20c0,5.1,1.5,6.6,6.5,6.6h0.5v-3.3c-3,0-3.5-0.5-3.5-3.4v-6.5h3.5v-3.1h-3.5
		C70.2,10.4,70.2,4.6,70.2,4.6z M137,18.4c0-4.8-3.7-8.3-8.5-8.3c-4.8,0-8.5,3.7-8.5,8.5c0,4.6,3.3,8.4,8.5,8.4c4.2,0,7-2.2,8.3-5.8
		h-3.8c-0.6,1.7-2.2,2.8-4.4,2.8c-2.9,0-4.8-1.8-5.2-4.3H137V18.4z M123.6,16.7c0.3-1,1-1.9,1.9-2.6c0.9-0.6,2-1,3.1-1
		c2.5,0,4.3,1.3,4.9,3.5C133.4,16.7,123.6,16.7,123.6,16.7z M27.8,3.8c0-0.1,0-0.1,0-0.2c0,0,0,0,0,0c-2.9-2.4-6.9-3.5-10.9-3.5
		C7.1,0.1,0,7.3,0,16.5C0,25.8,7.1,33,17,33c7.8,0,14.3-4.2,15.8-12.8c0.1-0.3,0.1-0.7,0.1-1v0l0-0.3c0,0,0-0.1,0-0.1
		c0-0.1,0-0.2,0-0.3v-0.1c0-0.1,0-0.2,0-0.3l0-0.1c0-0.1,0-0.2,0-0.2c0,0,0-0.1,0-0.2c0-0.1,0-0.2,0-0.2v-1.8c0-0.1,0-0.2,0-0.3
		v-0.1c0-0.1,0-0.2,0-0.4v-0.1c0-0.1,0-0.3,0-0.4v0c0-0.2,0-0.3,0-0.5c0-0.1-0.1-0.2-0.2-0.3c-0.1-0.1-0.2-0.1-0.3-0.1H17.3
		c-0.2,0-0.4,0.1-0.4,0.3c0,0.1,0,0.1,0,0.2v5.3c0,0.1,0,0.2,0.1,0.2c0.1,0.1,0.1,0.1,0.2,0.1h8.9c-0.7,4.4-3.9,7.2-9.1,7.2
		c-6.3,0-10.4-4.5-10.4-10.2c0-3.7,1.7-6.7,4.5-8.5c0,0,0.2-0.1,0.5-0.3c1-0.5,2-0.9,3.1-1.1c2.4-0.5,6.1-0.4,9.8,2
		c0.1,0.1,0.3,0,0.4-0.1c0,0,0,0,0,0C25.4,7.6,26.6,5.3,27.8,3.8z M61.9,18.7l-6.4-0.8c0,0-0.1,0-0.1,0c0,0,0,0,0,0.1
		c0,0.3-0.1,0.7-0.2,1c0,0,0,0.1,0,0.1c0,0,0,0,0,0l6.2,1.6c0,0,0.1,0,0.1,0c0,0,0,0,0.1-0.1c0.2-0.6,0.3-1.2,0.4-1.8
		C62,18.7,61.9,18.7,61.9,18.7C61.9,18.7,61.9,18.7,61.9,18.7z M54.8,13c0.1,0.2,0.1,0.3,0.2,0.5c0,0.1,0.2,0.2,0.3,0.2l6-1.7
		c0.1,0,0.2-0.1,0.2-0.2c0,0,0-0.1,0-0.1c-0.1-0.4-0.2-0.7-0.4-1.1c0-0.1-0.1-0.1-0.1-0.1c-0.1,0-0.1,0-0.2,0L55,12.7
		c-0.1,0-0.1,0.1-0.1,0.1C54.8,12.9,54.8,13,54.8,13z M55.3,14.6c0,0.2,0.1,0.5,0.1,0.7c0,0.1,0,0.1,0.1,0.1c0,0,0.1,0,0.1,0
		l6.2-0.6c0.1,0,0.1,0,0.1-0.1c0,0,0-0.1,0-0.1c-0.1-0.5-0.1-0.9-0.2-1.4c0-0.1,0-0.1-0.1-0.1c0,0-0.1,0-0.2,0l-6.1,1.3
		c-0.1,0-0.1,0-0.1,0.1C55.3,14.5,55.3,14.6,55.3,14.6L55.3,14.6z M55.4,16.2c0,0.3,0,0.6,0,0.9c0,0.1,0.1,0.2,0.1,0.2c0,0,0,0,0,0
		l6.3,0.5c0,0,0.1,0,0.1,0c0,0,0.1-0.1,0.1-0.1c0-0.6,0-1.1,0-1.7c0-0.1,0-0.1-0.1-0.1c0,0,0,0-0.1,0L55.6,16c0,0-0.1,0-0.1,0
		C55.5,16.1,55.4,16.2,55.4,16.2z M61.3,21.4l-6.2-1.9c0,0,0,0-0.1,0c0,0,0,0,0,0c-0.1,0.4-0.3,0.7-0.4,1.1c0,0,0,0.1,0,0.1
		c0,0,0,0,0,0l5.9,2.7c0,0,0.1,0,0.1,0C60.9,22.8,61.1,22.2,61.3,21.4C61.3,21.5,61.3,21.5,61.3,21.4C61.3,21.5,61.3,21.4,61.3,21.4
		z M54.2,11.2c-0.1,0.1-0.2,0.3-0.1,0.4l0.1,0.1l0.1,0.1c0.1,0.1,0.3,0.2,0.4,0.1l5.4-2.6c0.1,0,0.1-0.1,0.2-0.2c0-0.1,0-0.2,0-0.2
		c-0.1-0.3-0.3-0.5-0.4-0.7C59.7,8,59.6,8,59.4,8.1C59.4,8.1,54.2,11.2,54.2,11.2z">
  </path>
  <path class="st0" d="M54.4,21.1C54.4,21.1,54.3,21.1,54.4,21.1C54.3,21.1,54.3,21.1,54.4,21.1c-1,1.8-2.4,3.2-4.2,4.2
		c-1.8,0.9-3.8,1.3-5.8,1.1c-2-0.2-3.9-1-5.5-2.3c-1.5-1.3-2.6-3-3.2-4.9c-0.5-1.7-0.5-3.6,0-5.3c0.5-1.8,1.5-3.3,2.9-4.5
		c1-0.9,2.3-1.7,3.6-2.1c1.3-0.4,2.7-0.6,4.1-0.5c0,0,0,0,0,0c0,0,0,0,0,0l0.6-6.5c0,0,0,0,0,0c0,0,0,0,0,0c-3-0.3-6,0.3-8.7,1.6
		c-9,4.3-12.3,15.5-6.8,23.8c1.6,2.4,3.8,4.4,6.4,5.7c2.6,1.3,5.5,1.9,8.4,1.8c2.9-0.1,5.8-1,8.2-2.6c2.5-1.5,4.5-3.7,5.8-6.3
		c0,0,0,0,0-0.1L54.4,21.1L54.4,21.1z">
  </path>
  <path class="st0" d="M52.4,1.6l-2.7,5.7c0,0.1-0.1,0.1-0.2,0.1c-0.3-0.1-0.6-0.3-0.9-0.4c0,0-0.1,0-0.1-0.1c0,0,0-0.1,0-0.1l2-6
		c0,0,0-0.1,0.1-0.1c0,0,0.1,0,0.1,0c0.6,0.2,1.2,0.4,1.7,0.7C52.4,1.5,52.4,1.6,52.4,1.6L52.4,1.6z M53.4,10.5
		c-0.1-0.1-0.2-0.3-0.3-0.4C53,10,53,9.9,53.1,9.8l4.6-4c0.1-0.1,0.3-0.1,0.3,0c0.3,0.3,0.5,0.6,0.7,0.9c0.1,0.1,0.1,0.3,0,0.3
		c0,0,0,0,0,0l-5,3.6C53.6,10.6,53.5,10.6,53.4,10.5L53.4,10.5z M52.3,9.3c-0.2-0.2-0.3-0.3-0.5-0.5c-0.1-0.1-0.1-0.2,0-0.3l3.9-4.9
		c0,0,0.1-0.1,0.1-0.1c0.1,0,0.1,0,0.1,0C56.3,4,56.6,4.3,57,4.6c0.1,0.1,0.1,0.1,0,0.2c0,0,0,0,0,0.1l-4.4,4.4
		C52.5,9.4,52.4,9.4,52.3,9.3z M51,8.3c-0.2-0.2-0.5-0.3-0.8-0.5c0,0-0.1-0.1-0.1-0.1c0,0,0-0.1,0-0.1l3-5.5c0,0,0.1-0.1,0.1-0.1
		c0,0,0.1,0,0.1,0c0.5,0.3,1,0.6,1.4,0.9c0,0,0.1,0.1,0.1,0.1c0,0,0,0.1,0,0.1l-3.7,5.1C51.2,8.3,51.2,8.3,51,8.3
		C51.1,8.3,51.1,8.3,51,8.3L51,8.3z M49.7,0.6L48,6.8c0,0,0,0,0,0c0,0,0,0-0.1,0c-0.4-0.1-0.8-0.2-1.1-0.2c0,0,0,0-0.1,0
		c0,0,0,0,0-0.1l0.8-6.4c0,0,0,0,0-0.1c0,0,0,0,0.1,0C48.3,0.2,49,0.4,49.7,0.6C49.7,0.5,49.7,0.6,49.7,0.6
		C49.7,0.6,49.7,0.6,49.7,0.6L49.7,0.6z M127.9,29.2v13.6h1.2v-2.9l2.4-2.5l4,5.4h1.4l-4.6-6.1l4.4-4.4h-1.6l-6.1,6.2v-9.2
		C129.1,29.2,127.9,29.2,127.9,29.2z M117.9,32.2h-1.2v10.6h1.2v-5.9c0-2.2,1.7-3.8,3.8-3.8c2.3,0,3.7,1.5,3.7,3.8v5.9h1.2v-5.9
		c0-3-1.9-4.9-4.7-4.9c-1.8,0-3.3,0.9-4,2.2L117.9,32.2L117.9,32.2z M105.4,37.5c0-2.4,1.9-4.4,4.4-4.4c2.4,0,4.4,1.9,4.4,4.3
		c0,0,0,0,0,0.1c0,2.4-1.9,4.4-4.3,4.4c0,0,0,0-0.1,0C107.3,41.9,105.4,39.9,105.4,37.5z M104.1,37.5c0,3,2.4,5.5,5.5,5.5
		c1.6,0,3.5-0.9,4.3-2.4v2.2h1.2V32.2H114v2.2c-0.9-1.5-2.7-2.4-4.3-2.4C106.5,32,104.1,34.5,104.1,37.5L104.1,37.5z M93.6,37.5
		c0-0.6,0.1-1.1,0.3-1.7c0.2-0.5,0.5-1,1-1.4c0.4-0.4,0.9-0.7,1.4-1c0.5-0.2,1.1-0.3,1.7-0.3c2.4,0,4.3,2,4.3,4.4
		c0,2.4-1.9,4.4-4.3,4.4C95.5,41.9,93.6,39.9,93.6,37.5z M92.6,29.2v13.6h1.2v-2.2c0.9,1.5,2.7,2.4,4.3,2.4c0.7,0,1.5-0.1,2.1-0.4
		c0.7-0.3,1.3-0.7,1.8-1.2c0.5-0.5,0.9-1.1,1.2-1.8c0.3-0.7,0.4-1.4,0.4-2.1c0-3-2.4-5.5-5.5-5.5c-1.6,0-3.4,0.9-4.3,2.4v-5.1
		C93.8,29.2,92.6,29.2,92.6,29.2z">
  </path>
 </g>
</svg>