<svg xmlns="http://www.w3.org/2000/svg" width="4047" height="488" viewBox="0 0 4047 488" version="1.1"><path d="M 237.986 67.660 L 230.858 78.319 226.066 87.910 L 221.273 97.500 217.534 107 L 213.795 116.500 210.928 127.500 L 208.062 138.500 206.613 148 L 205.163 157.500 204.548 166.500 L 203.934 175.500 204.963 187.825 L 205.993 200.150 208.054 210.325 L 210.115 220.500 214.206 232.843 L 218.297 245.186 224.910 258.343 L 231.522 271.500 238.308 281.750 L 245.094 292 246.084 292 L 247.073 292 254.121 281.250 L 261.169 270.500 268.016 256.500 L 274.864 242.500 278.453 231.548 L 282.041 220.597 284.005 211.048 L 285.969 201.500 287.155 188.250 L 288.340 175 287.155 161.750 L 285.969 148.500 283.934 138.606 L 281.900 128.712 278.855 119.106 L 275.809 109.500 271.482 99.500 L 267.155 89.500 262.327 80.799 L 257.500 72.099 252.241 64.549 L 246.982 57 246.048 57 L 245.114 57 237.986 67.660 M 116.519 187.970 L 115.920 188.939 117.918 201.220 L 119.916 213.500 122.414 222.113 L 124.912 230.726 128.025 238.613 L 131.138 246.500 135.199 254 L 139.259 261.500 143.818 267.943 L 148.377 274.387 154.202 281.154 L 160.027 287.922 168.263 294.830 L 176.500 301.738 184 306.742 L 191.500 311.746 200.591 316.303 L 209.682 320.860 219.591 324.289 L 229.500 327.718 234.750 328.959 L 240 330.199 240 402.600 L 240 475 245.993 475 L 251.987 475 252.243 402.750 L 252.500 330.500 257 329.212 L 261.500 327.924 271 324.860 L 280.500 321.795 292.192 315.848 L 303.885 309.900 312.692 303.700 L 321.500 297.500 332.045 287 L 342.590 276.500 349.261 266.457 L 355.931 256.414 360.374 246.957 L 364.818 237.500 367.899 228 L 370.980 218.500 372.889 209 L 374.798 199.500 375.497 193.250 L 376.196 187 375.515 187 L 374.833 187 366.989 189.003 L 359.145 191.005 351.058 194.416 L 342.971 197.827 334.883 202.569 L 326.795 207.310 318.147 214.020 L 309.500 220.729 299.912 230.643 L 290.324 240.558 283.327 250.029 L 276.329 259.500 272.433 265.500 L 268.537 271.500 258.519 291.500 L 248.500 311.500 246.147 311.500 L 243.793 311.500 241.891 308 L 239.990 304.500 234.581 293 L 229.172 281.500 222.740 270.825 L 216.307 260.151 210.404 251.825 L 204.500 243.500 190 228.913 L 175.500 214.326 165.457 207.698 L 155.414 201.069 145.922 196.573 L 136.430 192.076 126.965 189.541 L 117.500 187.005 117.309 187.003 L 117.118 187 116.519 187.970 M 50.472 315.974 L 44.444 316.830 37.995 318.501 L 31.547 320.172 29.835 321.088 L 28.123 322.005 29.677 326.567 L 31.232 331.129 38.541 345.815 L 45.851 360.500 48.831 365.137 L 51.812 369.773 63.184 364.075 L 74.556 358.377 83.028 355.704 L 91.500 353.031 99 351.348 L 106.500 349.665 124.500 349.659 L 142.500 349.652 178 355.806 L 213.500 361.960 221.331 363.350 L 229.163 364.740 229.635 363.508 L 230.108 362.276 229.804 356.450 L 229.500 350.624 218.500 348.427 L 207.500 346.231 193.500 342.665 L 179.500 339.099 144 329.530 L 108.500 319.960 97.500 317.907 L 86.500 315.854 71.500 315.486 L 56.500 315.118 50.472 315.974 M 451 335.160 L 443.500 338.133 428.500 342.480 L 413.500 346.827 398.500 349.882 L 383.500 352.938 372 354.413 L 360.500 355.889 345.500 357.085 L 330.500 358.281 302.500 357.630 L 274.500 356.979 268.750 356.366 L 263 355.752 263 362.809 L 263 369.865 264.750 370.383 L 266.500 370.902 277 372.879 L 287.500 374.856 301 376.879 L 314.500 378.903 328 380.434 L 341.500 381.965 362.204 383.021 L 382.909 384.076 399.616 383.022 L 416.323 381.968 423.411 380.943 L 430.500 379.917 432.782 378.965 L 435.065 378.013 441.067 368.757 L 447.068 359.500 452.914 348 L 458.760 336.500 459.448 334.250 L 460.135 332 459.317 332.093 L 458.500 332.187 451 335.160 M 156 369.029 L 142.500 369.731 134.500 370.948 L 126.500 372.164 116.500 374.512 L 106.500 376.859 97.500 380.019 L 88.500 383.179 79.250 387.678 L 70 392.178 70 393.701 L 70 395.224 83.250 408.480 L 96.500 421.737 99.193 423.446 L 101.885 425.155 109.258 420.679 L 116.630 416.204 126.979 411.011 L 137.328 405.817 147.328 401.920 L 157.329 398.023 167.914 395.077 L 178.500 392.132 186.500 390.567 L 194.500 389.003 204 388.019 L 213.500 387.035 221.750 387.017 L 230 387 230 381.067 L 230 375.135 228.250 374.614 L 226.500 374.093 218 372.583 L 209.500 371.073 199.500 370.082 L 189.500 369.091 179.500 368.710 L 169.500 368.328 156 369.029 M 263.193 387.184 L 263.500 391.367 276.500 395.086 L 289.500 398.805 301 403.031 L 312.500 407.257 329 414.014 L 345.500 420.772 361.202 427.386 L 376.904 434 378.202 433.976 L 379.500 433.952 388.482 426.726 L 397.463 419.500 406.982 410.242 L 416.500 400.984 411 401.742 L 405.500 402.500 383 402.413 L 360.500 402.326 342.712 399.646 L 324.925 396.966 310.212 393.919 L 295.500 390.872 279.795 386.936 L 264.090 383 263.487 383 L 262.885 383 263.193 387.184 M 211.775 407.532 L 202.050 408.858 193.775 410.534 L 185.500 412.209 173.593 416.106 L 161.687 420.003 153.245 424.494 L 144.802 428.985 138.524 433.981 L 132.245 438.977 130.599 441.489 L 128.953 444.001 132.227 446.008 L 135.500 448.015 145 452.652 L 154.500 457.289 165 461.235 L 175.500 465.182 188.500 468.514 L 201.500 471.847 212.128 473.423 L 222.757 475 226.378 475 L 230 475 230 440.500 L 230 406 225.750 406.103 L 221.500 406.206 211.775 407.532 M 263 441.638 L 263 475.276 270.750 474.593 L 278.500 473.910 290.500 471.497 L 302.500 469.085 311.498 466.475 L 320.496 463.865 330.748 459.857 L 341 455.848 341 455.142 L 341 454.435 335.448 447.747 L 329.897 441.058 321.698 434.487 L 313.500 427.916 305.970 423.492 L 298.441 419.068 290.970 415.976 L 283.500 412.884 274.141 410.442 L 264.781 408 263.891 408 L 263 408 263 441.638" stroke="none" fill="#fafbfa" fill-rule="evenodd"/><path d="M 218.761 2.019 L 211.022 2.903 201.269 4.565 L 191.515 6.226 179.008 9.653 L 166.500 13.080 155 17.636 L 143.500 22.192 132 28.169 L 120.500 34.145 109.156 41.682 L 97.812 49.219 88.656 56.821 L 79.500 64.423 71.962 71.962 L 64.423 79.500 56.533 89 L 48.643 98.500 40.701 110.500 L 32.760 122.500 25.410 137.500 L 18.060 152.500 13.073 167.500 L 8.087 182.500 5.598 195 L 3.109 207.500 2.055 217.211 L 1 226.921 1 244.909 L 1 262.898 2.543 274.699 L 4.087 286.500 6.139 296.500 L 8.191 306.500 13.110 321.476 L 18.029 336.451 24.918 350.476 L 31.807 364.500 37.473 373.500 L 43.139 382.500 50.319 391.999 L 57.500 401.499 69.500 413.864 L 81.500 426.230 90.500 433.456 L 99.500 440.683 108.500 446.717 L 117.500 452.750 126.500 457.722 L 135.500 462.693 144.721 466.833 L 153.942 470.972 165.221 474.850 L 176.500 478.728 187.500 481.319 L 198.500 483.911 210 485.666 L 221.500 487.421 243.500 487.441 L 265.500 487.461 275 486.146 L 284.500 484.831 294 482.834 L 303.500 480.836 312.500 478.282 L 321.500 475.728 330.500 472.324 L 339.500 468.920 352.661 462.451 L 365.821 455.981 379.161 447.050 L 392.500 438.119 404.067 428.156 L 415.634 418.193 423.967 408.847 L 432.300 399.500 439.717 389.589 L 447.133 379.678 453.136 369.589 L 459.138 359.500 463.486 350.500 L 467.833 341.500 470.936 333.676 L 474.038 325.853 477.532 314.325 L 481.026 302.798 483.460 289.621 L 485.894 276.443 487.042 260.972 L 488.190 245.500 487.557 235 L 486.923 224.500 485.885 215 L 484.846 205.500 482.344 193.500 L 479.842 181.500 475.898 169.343 L 471.955 157.186 467.469 146.929 L 462.983 136.671 458.340 128.155 L 453.698 119.638 445.957 108.069 L 438.215 96.500 428.803 85.500 L 419.391 74.500 410.263 66.130 L 401.135 57.761 391.323 50.290 L 381.511 42.818 372.505 37.235 L 363.500 31.651 349.500 24.897 L 335.500 18.143 324 14.208 L 312.500 10.272 301.458 7.643 L 290.416 5.014 280.458 3.431 L 270.500 1.849 248.500 1.491 L 226.500 1.134 218.761 2.019 M 574 247.500 L 574 487 709 487 L 844 487 844 442 L 844 397 767.500 397 L 691 397 691 202.500 L 691 8 632.500 8 L 574 8 574 247.500 M 943.909 247.519 L 857.317 487 918.917 487 L 980.517 487 994.642 445.250 L 1008.768 403.500 1097.752 403.245 L 1186.737 402.989 1200.986 444.995 L 1215.236 487 1277.500 487 L 1339.764 487 1334.426 472.250 L 1329.088 457.500 1247.794 232.756 L 1166.500 8.011 1098.500 8.025 L 1030.500 8.038 943.909 247.519 M 1371 247.500 L 1371 487 1429.497 487 L 1487.993 487 1488.247 340.423 L 1488.500 193.846 1585.153 340.173 L 1681.806 486.500 1740.903 486.758 L 1800 487.016 1800 247.508 L 1800 8 1741.003 8 L 1682.007 8 1681.753 154.993 L 1681.500 301.985 1585 155.048 L 1488.500 8.111 1429.750 8.056 L 1371 8 1371 247.500 M 1821 247.500 L 1821 487 1922.750 486.999 L 2024.500 486.998 2038 485.450 L 2051.500 483.902 2064 481.401 L 2076.500 478.900 2086.713 475.931 L 2096.925 472.963 2106.213 469.437 L 2115.500 465.912 2127.500 460.012 L 2139.500 454.112 2151.508 446.250 L 2163.516 438.388 2170.508 432.555 L 2177.500 426.722 2184.319 420.111 L 2191.137 413.500 2198.023 405.432 L 2204.908 397.363 2212.335 386.247 L 2219.762 375.130 2225.365 364.177 L 2230.968 353.223 2235.001 342.874 L 2239.034 332.525 2241.991 322.211 L 2244.948 311.896 2246.902 301.698 L 2248.856 291.500 2250.166 281 L 2251.476 270.500 2251.476 247.500 L 2251.476 224.500 2250.166 214 L 2248.856 203.500 2246.902 193.302 L 2244.948 183.104 2241.991 172.789 L 2239.034 162.475 2235.105 152.392 L 2231.176 142.310 2226.506 133.012 L 2221.836 123.714 2216.466 115.107 L 2211.095 106.500 2205.298 98.838 L 2199.500 91.176 2191.648 82.559 L 2183.795 73.941 2173.332 65.220 L 2162.869 56.500 2152.684 49.666 L 2142.500 42.831 2126.500 34.963 L 2110.500 27.095 2097 22.636 L 2083.500 18.177 2071.787 15.567 L 2060.073 12.958 2050.287 11.519 L 2040.500 10.079 2028.500 9.050 L 2016.500 8.021 1918.750 8.010 L 1821 8 1821 247.500 M 2274 247.533 L 2274 487.065 2401.750 486.722 L 2529.500 486.378 2541 484.187 L 2552.500 481.995 2562.504 479.068 L 2572.508 476.141 2580.769 472.657 L 2589.029 469.173 2596.766 464.637 L 2604.503 460.101 2612.969 453.301 L 2621.435 446.500 2628.557 438.219 L 2635.679 429.938 2640.049 422.300 L 2644.419 414.662 2647.742 406.387 L 2651.064 398.112 2653.092 388.822 L 2655.120 379.531 2655.921 368.003 L 2656.722 356.474 2655.898 345.987 L 2655.074 335.500 2652.559 325.612 L 2650.045 315.724 2644.676 304.612 L 2639.307 293.500 2633.295 285.500 L 2627.284 277.500 2619.392 269.925 L 2611.500 262.349 2605.119 258.048 L 2598.738 253.747 2590.595 249.932 L 2582.453 246.116 2574.226 243.741 L 2565.999 241.366 2571.676 239.576 L 2577.354 237.786 2586.427 233.138 L 2595.500 228.489 2603.143 222.737 L 2610.785 216.985 2616.847 210.504 L 2622.909 204.024 2626.819 198.262 L 2630.729 192.500 2634.224 185.500 L 2637.719 178.500 2639.818 172 L 2641.917 165.500 2643.394 157 L 2644.872 148.500 2645.492 140 L 2646.111 131.500 2645.045 120.337 L 2643.979 109.174 2641.592 99.763 L 2639.205 90.352 2636.079 82.844 L 2632.953 75.336 2627.757 67.418 L 2622.560 59.500 2614.761 51.373 L 2606.961 43.247 2598.231 37.027 L 2589.500 30.807 2579.500 25.943 L 2569.500 21.079 2560.500 18.092 L 2551.500 15.106 2539 12.606 L 2526.500 10.107 2515 9.057 L 2503.500 8.007 2388.750 8.003 L 2274 8 2274 247.533 M 2762.909 247.519 L 2676.317 487 2737.917 487 L 2799.517 487 2813.642 445.250 L 2827.768 403.500 2916.752 403.245 L 3005.737 402.989 3019.986 444.995 L 3034.236 487 3096.500 487 L 3158.764 487 3153.426 472.250 L 3148.088 457.500 3066.794 232.756 L 2985.500 8.011 2917.500 8.025 L 2849.500 8.038 2762.909 247.519 M 3176 247.500 L 3176 487 3234.497 487 L 3292.993 487 3293.247 340.423 L 3293.500 193.846 3390.153 340.173 L 3486.806 486.500 3545.903 486.758 L 3605 487.016 3605 247.508 L 3605 8 3546.003 8 L 3487.007 8 3486.753 154.993 L 3486.500 301.985 3390 155.048 L 3293.500 8.111 3234.750 8.056 L 3176 8 3176 247.500 M 3626 247.500 L 3626 487 3684.495 487 L 3742.991 487 3743.245 382.223 L 3743.500 277.445 3823.065 381.973 L 3902.630 486.500 3974.401 486.757 L 4046.171 487.013 4045.836 486.102 L 4045.500 485.191 3950.511 364.628 L 3855.522 244.065 3855.262 243.283 L 3855.002 242.500 3947.509 125.500 L 4040.016 8.500 3971.258 8.221 L 3902.500 7.942 3900 10.908 L 3897.500 13.874 3820.500 115.249 L 3743.500 216.625 3743.245 112.312 L 3742.991 8 3684.495 8 L 3626 8 3626 247.500 M 237.986 67.660 L 230.858 78.319 226.066 87.910 L 221.273 97.500 217.534 107 L 213.795 116.500 210.928 127.500 L 208.062 138.500 206.613 148 L 205.163 157.500 204.548 166.500 L 203.934 175.500 204.963 187.825 L 205.993 200.150 208.054 210.325 L 210.115 220.500 214.206 232.843 L 218.297 245.186 224.910 258.343 L 231.522 271.500 238.308 281.750 L 245.094 292 246.084 292 L 247.073 292 254.121 281.250 L 261.169 270.500 268.016 256.500 L 274.864 242.500 278.453 231.548 L 282.041 220.597 284.005 211.048 L 285.969 201.500 287.155 188.250 L 288.340 175 287.155 161.750 L 285.969 148.500 283.934 138.606 L 281.900 128.712 278.855 119.106 L 275.809 109.500 271.482 99.500 L 267.155 89.500 262.327 80.799 L 257.500 72.099 252.241 64.549 L 246.982 57 246.048 57 L 245.114 57 237.986 67.660 M 2391 152.008 L 2391 202.189 2435.750 201.725 L 2480.500 201.261 2487.500 199.644 L 2494.500 198.026 2501.702 194.482 L 2508.904 190.938 2513.603 186.239 L 2518.303 181.539 2521.077 175.672 L 2523.852 169.805 2525.057 162.659 L 2526.263 155.514 2525.682 147.507 L 2525.100 139.500 2523.154 133.894 L 2521.207 128.288 2518.744 124.394 L 2516.281 120.500 2511.731 116.313 L 2507.180 112.125 2501.994 109.497 L 2496.808 106.869 2489.154 104.764 L 2481.500 102.658 2436.250 102.242 L 2391 101.826 2391 152.008 M 1938 247 L 1938 386 1966.250 385.998 L 1994.500 385.995 2008 384.965 L 2021.500 383.936 2031.500 381.908 L 2041.500 379.880 2050.223 376.968 L 2058.945 374.057 2065.223 370.919 L 2071.500 367.781 2079.940 362.201 L 2088.380 356.620 2095.940 349.033 L 2103.500 341.446 2108.821 333.706 L 2114.142 325.967 2118.509 316.734 L 2122.876 307.500 2125.480 298.500 L 2128.083 289.500 2129.775 280.500 L 2131.466 271.500 2131.479 247.500 L 2131.492 223.500 2129.232 212.335 L 2126.972 201.170 2124.416 193.335 L 2121.859 185.500 2118.073 177.417 L 2114.286 169.334 2108.964 161.417 L 2103.642 153.500 2095.048 145 L 2086.453 136.500 2079.477 131.873 L 2072.500 127.245 2065.211 123.591 L 2057.923 119.936 2048.818 116.886 L 2039.713 113.835 2029.621 111.879 L 2019.528 109.922 2005.014 108.982 L 1990.500 108.041 1964.250 108.021 L 1938 108 1938 247 M 1069 225.237 L 1040.500 310.375 1040.167 311.187 L 1039.833 312 1097.917 312 L 1156 312 1156 311.363 L 1156 310.726 1127.381 226.113 L 1098.762 141.500 1098.130 140.800 L 1097.499 140.099 1069 225.237 M 2888 225.237 L 2859.500 310.375 2859.167 311.187 L 2858.833 312 2916.917 312 L 2975 312 2975 311.363 L 2975 310.726 2946.381 226.113 L 2917.762 141.500 2917.130 140.800 L 2916.499 140.099 2888 225.237 M 116.519 187.970 L 115.920 188.939 117.918 201.220 L 119.916 213.500 122.414 222.113 L 124.912 230.726 128.025 238.613 L 131.138 246.500 135.199 254 L 139.259 261.500 143.818 267.943 L 148.377 274.387 154.202 281.154 L 160.027 287.922 168.263 294.830 L 176.500 301.738 184 306.742 L 191.500 311.746 200.591 316.303 L 209.682 320.860 219.591 324.289 L 229.500 327.718 234.750 328.959 L 240 330.199 240 402.600 L 240 475 245.993 475 L 251.987 475 252.243 402.750 L 252.500 330.500 257 329.212 L 261.500 327.924 271 324.860 L 280.500 321.795 292.192 315.848 L 303.885 309.900 312.692 303.700 L 321.500 297.500 332.045 287 L 342.590 276.500 349.261 266.457 L 355.931 256.414 360.374 246.957 L 364.818 237.500 367.899 228 L 370.980 218.500 372.889 209 L 374.798 199.500 375.497 193.250 L 376.196 187 375.515 187 L 374.833 187 366.989 189.003 L 359.145 191.005 351.058 194.416 L 342.971 197.827 334.883 202.569 L 326.795 207.310 318.147 214.020 L 309.500 220.729 299.912 230.643 L 290.324 240.558 283.327 250.029 L 276.329 259.500 272.433 265.500 L 268.537 271.500 258.519 291.500 L 248.500 311.500 246.147 311.500 L 243.793 311.500 241.891 308 L 239.990 304.500 234.581 293 L 229.172 281.500 222.740 270.825 L 216.307 260.151 210.404 251.825 L 204.500 243.500 190 228.913 L 175.500 214.326 165.457 207.698 L 155.414 201.069 145.922 196.573 L 136.430 192.076 126.965 189.541 L 117.500 187.005 117.309 187.003 L 117.118 187 116.519 187.970 M 2391 340.050 L 2391 392.099 2443.250 391.787 L 2495.500 391.475 2503.657 388.723 L 2511.815 385.972 2517.868 381.929 L 2523.921 377.887 2526.830 374.193 L 2529.739 370.500 2532.232 365.500 L 2534.726 360.500 2536.039 355 L 2537.351 349.500 2537.256 340 L 2537.161 330.500 2535.071 323.850 L 2532.981 317.200 2528.867 311.039 L 2524.754 304.879 2519.612 300.997 L 2514.471 297.115 2507.986 294.118 L 2501.500 291.120 2493.792 289.560 L 2486.084 288 2438.542 288 L 2391 288 2391 340.050 M 50.472 315.974 L 44.444 316.830 37.995 318.501 L 31.547 320.172 29.835 321.088 L 28.123 322.005 29.677 326.567 L 31.232 331.129 38.541 345.815 L 45.851 360.500 48.831 365.137 L 51.812 369.773 63.184 364.075 L 74.556 358.377 83.028 355.704 L 91.500 353.031 99 351.348 L 106.500 349.665 124.500 349.659 L 142.500 349.652 178 355.806 L 213.500 361.960 221.331 363.350 L 229.163 364.740 229.635 363.508 L 230.108 362.276 229.804 356.450 L 229.500 350.624 218.500 348.427 L 207.500 346.231 193.500 342.665 L 179.500 339.099 144 329.530 L 108.500 319.960 97.500 317.907 L 86.500 315.854 71.500 315.486 L 56.500 315.118 50.472 315.974 M 451 335.160 L 443.500 338.133 428.500 342.480 L 413.500 346.827 398.500 349.882 L 383.500 352.938 372 354.413 L 360.500 355.889 345.500 357.085 L 330.500 358.281 302.500 357.630 L 274.500 356.979 268.750 356.366 L 263 355.752 263 362.809 L 263 369.865 264.750 370.383 L 266.500 370.902 277 372.879 L 287.500 374.856 301 376.879 L 314.500 378.903 328 380.434 L 341.500 381.965 362.204 383.021 L 382.909 384.076 399.616 383.022 L 416.323 381.968 423.411 380.943 L 430.500 379.917 432.782 378.965 L 435.065 378.013 441.067 368.757 L 447.068 359.500 452.914 348 L 458.760 336.500 459.448 334.250 L 460.135 332 459.317 332.093 L 458.500 332.187 451 335.160 M 156 369.029 L 142.500 369.731 134.500 370.948 L 126.500 372.164 116.500 374.512 L 106.500 376.859 97.500 380.019 L 88.500 383.179 79.250 387.678 L 70 392.178 70 393.701 L 70 395.224 83.250 408.480 L 96.500 421.737 99.193 423.446 L 101.885 425.155 109.258 420.679 L 116.630 416.204 126.979 411.011 L 137.328 405.817 147.328 401.920 L 157.329 398.023 167.914 395.077 L 178.500 392.132 186.500 390.567 L 194.500 389.003 204 388.019 L 213.500 387.035 221.750 387.017 L 230 387 230 381.067 L 230 375.135 228.250 374.614 L 226.500 374.093 218 372.583 L 209.500 371.073 199.500 370.082 L 189.500 369.091 179.500 368.710 L 169.500 368.328 156 369.029 M 263.193 387.184 L 263.500 391.367 276.500 395.086 L 289.500 398.805 301 403.031 L 312.500 407.257 329 414.014 L 345.500 420.772 361.202 427.386 L 376.904 434 378.202 433.976 L 379.500 433.952 388.482 426.726 L 397.463 419.500 406.982 410.242 L 416.500 400.984 411 401.742 L 405.500 402.500 383 402.413 L 360.500 402.326 342.712 399.646 L 324.925 396.966 310.212 393.919 L 295.500 390.872 279.795 386.936 L 264.090 383 263.487 383 L 262.885 383 263.193 387.184 M 211.775 407.532 L 202.050 408.858 193.775 410.534 L 185.500 412.209 173.593 416.106 L 161.687 420.003 153.245 424.494 L 144.802 428.985 138.524 433.981 L 132.245 438.977 130.599 441.489 L 128.953 444.001 132.227 446.008 L 135.500 448.015 145 452.652 L 154.500 457.289 165 461.235 L 175.500 465.182 188.500 468.514 L 201.500 471.847 212.128 473.423 L 222.757 475 226.378 475 L 230 475 230 440.500 L 230 406 225.750 406.103 L 221.500 406.206 211.775 407.532 M 263 441.638 L 263 475.276 270.750 474.593 L 278.500 473.910 290.500 471.497 L 302.500 469.085 311.498 466.475 L 320.496 463.865 330.748 459.857 L 341 455.848 341 455.142 L 341 454.435 335.448 447.747 L 329.897 441.058 321.698 434.487 L 313.500 427.916 305.970 423.492 L 298.441 419.068 290.970 415.976 L 283.500 412.884 274.141 410.442 L 264.781 408 263.891 408 L 263 408 263 441.638" stroke="none" fill="#74bc44" fill-rule="evenodd"/></svg>