<svg version="1.1" id="Layer_1" xmlns="http://www.w3.org/2000/svg" xmlns:xlink="http://www.w3.org/1999/xlink" x="0px" y="0px" viewBox="0 0 124 123.6" style="enable-background:new 0 0 124 123.6;" xml:space="preserve">
 <style type="text/css">
  .st0{fill:#00539E;}
 </style>
 <g>
  <path class="st0" d="M72.5,102.4l33.9-20.4l1.2-0.8l0.2-0.2c0.2-0.2,0.4-0.2,0.6-0.2c0.8,0,1.4,0.6,1.4,1.4v0.2v25.8v0.2v0.2
		c0,1-1,1.8-2,2h-0.2h-0.2H62.7h-1.4H16.2H16h-0.2c-1-0.2-1.8-0.8-1.8-1.8c0-0.2,0-0.2,0-0.4s0-0.2,0-0.2V82.5v-0.4
		c0-0.6,0.6-1.2,1.4-1.2c0.2,0,0.4,0,0.6,0.2c0,0,0.2,0,0.2,0.2l1.2,0.8l33.9,20.4c0,0,5.4,3,10.6,3
		C67.3,105.4,72.5,102.4,72.5,102.4 M61.9,93.2c-3,0-5.2-1.6-5.2-1.6l-6-3.6L7,59.3l-0.6-0.4c-0.6-0.4-1.4-0.6-2-0.6
		c-2.2,0-4.2,1.8-4.2,4v0.6v47.5v4v1.4c0.4,4.2,3.6,7.6,7.8,7.8h1.4H14h96.2h4.6h1.4c4.2-0.4,7.4-3.6,7.8-7.6v-1.8v-3.8V62.9v-0.4
		c-0.2-2.2-2-4-4.2-4c-0.8,0-1.4,0.2-2,0.6l-0.6,0.4L73.3,87.9l-6.4,3.8C66.7,91.7,64.3,93.2,61.9,93.2">
  </path>
  <path class="st0" d="M89.9,38.9l-9.8-15.4c5.6,4.8,15.6,11.6,20,15.2H89.9V38.9z M80.1,65.7l9.8-15.2h10.2
		C95.2,54.7,86.5,60.3,80.1,65.7 M67.7,64.7V50.5h9.4C74.7,54.1,70.7,59.9,67.7,64.7 M67.7,24.4c3,4.6,7,10.6,9.4,14.4h-9.4V24.4z
		 M56.1,64.7c-3-4.8-7-10.6-9.4-14.2h9.4V64.7z M23.6,50.5h10.2l9.8,15.2C37.3,60.3,28.4,54.7,23.6,50.5 M43.7,23.4l-9.6,15.2H23.6
		C28,35.1,38.1,28.2,43.7,23.4 M56.1,24.4v14.4h-9.4C48.9,35.1,53.1,29,56.1,24.4 M120.2,37.7l-0.8-0.6L64.3,0.8l-0.2-0.2
		C63.5,0.2,62.7,0,61.9,0c-0.8,0-1.6,0.2-2.2,0.6l-0.4,0.2L4.2,37.3l-0.6,0.4c-2.2,1.6-3.6,4-3.6,7c0,2.8,1.2,5.2,3.2,6.6
		c0.4,0.4,1,0.6,1.4,0.8l54.7,36.1l0.6,0.4c0.6,0.4,1.4,0.6,2,0.6c0.8,0,1.6-0.2,2.2-0.6l0.4-0.2l54.7-36.1l1.4-1
		c2-1.6,3.2-4,3.2-6.6C123.8,41.7,122.4,39.3,120.2,37.7">
  </path>
 </g>
</svg>