<?xml version="1.0" encoding="UTF-8" standalone="no"?>
<!-- Created with Inkscape (http://www.inkscape.org/) -->

<svg
   xmlns:dc="http://purl.org/dc/elements/1.1/"
   xmlns:cc="http://creativecommons.org/ns#"
   xmlns:rdf="http://www.w3.org/1999/02/22-rdf-syntax-ns#"
   xmlns:svg="http://www.w3.org/2000/svg"
   xmlns="http://www.w3.org/2000/svg"
   xmlns:sodipodi="http://sodipodi.sourceforge.net/DTD/sodipodi-0.dtd"
   xmlns:inkscape="http://www.inkscape.org/namespaces/inkscape"
   width="111.47778mm"
   height="120.4896mm"
   viewBox="0 0 394.99999 426.93166"
   id="svg2"
   version="1.1"
   inkscape:version="0.48.5 r10040"
   sodipodi:docname="Pag-IBIG.svg">
  <defs
     id="defs4" />
  <sodipodi:namedview
     id="base"
     pagecolor="#ffffff"
     bordercolor="#666666"
     borderopacity="1.0"
     inkscape:pageopacity="0.0"
     inkscape:pageshadow="2"
     inkscape:zoom="0.74725342"
     inkscape:cx="297.29273"
     inkscape:cy="153.28236"
     inkscape:document-units="px"
     inkscape:current-layer="layer1"
     showgrid="false"
     fit-margin-top="0"
     fit-margin-left="0"
     fit-margin-right="0"
     fit-margin-bottom="0"
     inkscape:window-width="1366"
     inkscape:window-height="705"
     inkscape:window-x="-8"
     inkscape:window-y="-8"
     inkscape:window-maximized="1" />
  <metadata
     id="metadata7">
    <rdf:RDF>
      <cc:Work
         rdf:about="">
        <dc:format>image/svg+xml</dc:format>
        <dc:type
           rdf:resource="http://purl.org/dc/dcmitype/StillImage" />
        <dc:title />
      </cc:Work>
    </rdf:RDF>
  </metadata>
  <g
     inkscape:label="Layer 1"
     inkscape:groupmode="layer"
     id="layer1"
     transform="translate(-45.282948,-371.10465)">
    <g
       id="g9185">
      <path
         inkscape:connector-curvature="0"
         id="path4147"
         d="M 61.471164,468.39406 243.04388,388.56468 424.09483,468.39406"
         style="fill:none;stroke:#0038a8;stroke-width:31.95947266;stroke-linecap:round;stroke-linejoin:miter;stroke-miterlimit:4;stroke-opacity:1;stroke-dasharray:none" />
      <path
         sodipodi:nodetypes="ccczzzcc"
         inkscape:connector-curvature="0"
         id="path4149"
         d="m 64.601729,492.76072 178.511991,-73.37509 176.41187,75.95872 c 0,0 -2.07149,203.72966 -1.57511,233.04339 0.49638,29.31374 -24.00377,65.64475 -58.27892,68.20783 -34.27513,2.56308 -221.75757,1.49726 -247.81666,-1.55018 -26.059078,-3.04743 -44.361529,-30.79938 -46.728137,-67.6911 z"
         style="fill:#0038a8;fill-opacity:1;fill-rule:evenodd;stroke:none" />
      <circle
         transform="matrix(0.57567341,0,0,0.57567341,19.214759,338.62802)"
         r="166.55002"
         cy="457.81271"
         cx="383.90952"
         id="path4151"
         style="fill:#ffff00;fill-opacity:1;stroke:none"
         d="m 550.45953,457.81271 c 0,91.98304 -74.56698,166.55002 -166.55001,166.55002 -91.98304,0 -166.55002,-74.56698 -166.55002,-166.55002 0,-91.98303 74.56698,-166.55001 166.55002,-166.55001 91.98303,0 166.55001,74.56698 166.55001,166.55001 z"
         sodipodi:cx="383.90952"
         sodipodi:cy="457.81271"
         sodipodi:rx="166.55002"
         sodipodi:ry="166.55002" />
      <path
         transform="matrix(0.57567341,0,0,0.57567341,19.214759,338.62802)"
         sodipodi:open="true"
         d="m 436.78324,348.77791 a 115.37934,114.24641 0 0 1 56.66643,50.80195"
         sodipodi:end="5.7858212"
         sodipodi:start="5.1105368"
         sodipodi:ry="114.24641"
         sodipodi:rx="115.37934"
         sodipodi:cy="454.08804"
         sodipodi:cx="392.04932"
         sodipodi:type="arc"
         id="path4157"
         style="fill:none;stroke:#0038a8;stroke-width:23.13287163;stroke-linecap:round;stroke-linejoin:round;stroke-miterlimit:4;stroke-opacity:1;stroke-dasharray:none;stroke-dashoffset:0" />
      <ellipse
         transform="matrix(0.57567341,0,0,0.57567341,19.214759,338.62802)"
         ry="48.584915"
         rx="48.577087"
         cy="332.54288"
         cx="504.63977"
         id="path4153"
         style="fill:#209bc7;fill-opacity:1;stroke:none"
         d="m 553.21686,332.54288 c 0,26.8327 -21.7487,48.58491 -48.57709,48.58491 -26.82838,0 -48.57709,-21.75221 -48.57709,-48.58491 0,-26.83271 21.74871,-48.58492 48.57709,-48.58492 26.82839,0 48.57709,21.75221 48.57709,48.58492 z"
         sodipodi:cx="504.63977"
         sodipodi:cy="332.54288"
         sodipodi:rx="48.577087"
         sodipodi:ry="48.584915" />
      <path
         sodipodi:nodetypes="csasccacccccc"
         inkscape:connector-curvature="0"
         id="path4159"
         d="m 86.515678,580.57261 c 0,0 0.154263,92.17239 -1.654802,138.32988 -0.603484,15.39755 5.502246,30.48207 14.698819,42.19932 6.910005,8.80396 17.012965,17.44594 28.175075,18.26162 33.2142,2.42715 103.83037,-0.52176 103.83037,-0.52176 2.3369,-40.54647 -4.91155,-59.27985 -42.84767,-76.08211 -10.6312,-5.66529 -19.14293,-13.82767 -28.11178,-21.48714 -3.83539,-3.27545 -10.95697,-10.43521 -10.95697,-10.43521 l -7.82641,-9.3917 c -9.52245,8.34455 -1.48384,23.00765 4.91196,32.31752 3.96774,7.65548 27.53195,19.46218 20.68596,25.84569 -17.72234,6.56794 -44.7647,-27.19252 -50.64244,-40.42335 -19.802587,-45.04723 18.37988,-76.99311 -30.262112,-98.61276 z"
         style="fill:#209bc7;fill-opacity:1;fill-rule:evenodd;stroke:none" />
      <path
         sodipodi:nodetypes="csasccacccccc"
         inkscape:connector-curvature="0"
         id="path4159-2"
         d="m 396.18574,580.57261 c 0,0 -0.15427,92.17238 1.6548,138.32987 0.60348,15.39756 -5.50225,30.48208 -14.69883,42.19932 -6.91001,8.80396 -17.01297,17.44594 -28.17507,18.26162 -33.2142,2.42716 -103.83037,-0.52175 -103.83037,-0.52175 -2.33689,-40.54648 4.91155,-59.27986 42.84767,-76.08212 10.63119,-5.66529 19.14293,-13.82767 28.11178,-21.48714 3.83539,-3.27544 10.95697,-10.43521 10.95697,-10.43521 l 7.82641,-9.39169 c 9.52245,8.34455 1.48384,23.00764 -4.91196,32.31751 -3.96775,7.65549 -27.53195,19.46219 -20.68596,25.84569 17.72234,6.56794 44.76469,-27.19252 50.64243,-40.42334 19.8026,-45.04724 -18.37988,-76.99311 30.26213,-98.61276 z"
         style="fill:#209bc7;fill-opacity:1;fill-rule:evenodd;stroke:none" />
      <g
         transform="matrix(0.57567341,0,0,0.57567341,19.214759,338.62802)"
         id="text4418"
         style="font-size:37.01111603px;font-style:normal;font-variant:normal;font-weight:bold;font-stretch:normal;text-align:start;line-height:125%;letter-spacing:0px;word-spacing:0px;writing-mode:lr-tb;text-anchor:start;fill:#ce1126;fill-opacity:1;stroke:none;font-family:Swis721 BT;-inkscape-font-specification:'Swis721 BT, Bold'">
        <path
           id="path4570"
           style="font-size:74.02223206px;letter-spacing:1.85055578px;fill:#ce1126;fill-opacity:1"
           d="m 305.32103,397.81585 10.5901,0 q 4.30109,0 6.25285,-1.80719 1.95176,-1.84332 1.95176,-5.89142 0,-3.79508 -1.91562,-5.74684 -1.91561,-1.95176 -5.7107,-1.95176 l -11.16839,0 0,15.39721 z m -0.0723,9.65036 0,18.93928 -10.95153,0 0,-53.23963 23.67411,0 q 8.38533,0 12.68642,4.37339 4.33724,4.33724 4.33724,12.75871 0,8.24076 -4.22881,12.72257 -4.22881,4.44568 -12.07198,4.44568 l -13.44545,0 z"
           inkscape:connector-curvature="0" />
        <path
           id="path4572"
           style="font-size:74.02223206px;letter-spacing:1.85055578px;fill:#ce1126;fill-opacity:1"
           d="m 365.18217,421.52609 q -1.9879,3.07221 -5.20469,4.69868 -3.21678,1.59032 -7.48174,1.59032 -5.7107,0 -8.81905,-3.25293 -3.07221,-3.25293 -3.07221,-9.25278 0,-5.56612 3.07221,-8.49376 3.10835,-2.92764 10.22866,-4.01195 1.62646,-0.253 4.26495,-0.5783 6.68658,-0.86744 6.68658,-3.86737 0,-2.38548 -1.48189,-3.3975 -1.48189,-1.04817 -4.95168,-1.04817 -3.18065,0 -4.8794,1.26503 -1.69875,1.26503 -1.69875,3.61436 l 0,0.5783 -9.83108,0 0,-0.72287 q 0,-6.03599 4.26495,-9.46964 4.26496,-3.46979 11.78284,-3.46979 8.24076,0 12.61414,2.85535 4.40953,2.85535 4.40953,8.24075 l 0,22.33679 q 0,2.45777 0.50601,3.68665 0.50601,1.19274 1.69875,1.80719 l 0,1.77104 -10.95153,0 q -0.54216,-1.01203 -0.83131,-2.24091 -0.28914,-1.22889 -0.32529,-2.63849 z m -0.18072,-14.45747 q -2.5662,1.19275 -5.92756,1.91562 -3.32522,0.72287 -3.43365,0.75902 -2.78306,0.79516 -3.90351,1.9879 -1.08431,1.19274 -1.08431,3.28907 0,2.16862 1.4096,3.46979 1.4096,1.26503 3.79509,1.26503 4.26495,0 6.68657,-2.38548 2.45777,-2.42163 2.45777,-6.57815 l 0,-3.7228 z"
           inkscape:connector-curvature="0" />
        <path
           id="path4574"
           style="font-size:74.02223206px;letter-spacing:1.85055578px;fill:#ce1126;fill-opacity:1"
           d="m 394.75492,406.12889 q 0,5.52998 2.20477,8.49376 2.2409,2.96378 6.36128,2.96378 4.15652,0 6.32514,-2.96378 2.20477,-2.96378 2.20477,-8.63834 0,-5.3854 -2.27705,-8.31304 -2.24091,-2.96378 -6.39743,-2.96378 -4.01195,0 -6.21671,2.99992 -2.20477,2.99993 -2.20477,8.42148 z m -9.50578,24.07168 11.49369,-0.0361 q 0.50601,1.9879 2.06018,2.96378 1.59033,0.97588 4.22881,0.97588 4.91554,0 6.8673,-2.09633 1.95176,-2.06019 1.95176,-7.66246 l 0,-3.50594 q -1.66261,2.85535 -4.33724,4.22881 -2.63849,1.33732 -6.61429,1.33732 -7.62632,0 -12.21656,-5.42155 -4.59025,-5.4577 -4.59025,-14.49361 0,-9.54193 4.48182,-15.1442 4.51795,-5.63841 12.14427,-5.63841 3.9758,0 6.75886,1.51803 2.81921,1.51804 4.59025,4.62639 l 0,-4.73482 9.97565,0 0,36.68582 q 0,6.18057 -1.15659,9.4335 -1.1566,3.25293 -3.93966,5.45769 -2.38549,1.84333 -6.07214,2.78307 -3.65051,0.97588 -8.34919,0.97588 -7.87932,0 -12.39728,-3.21679 -4.51795,-3.21679 -4.87939,-9.03592 z"
           inkscape:connector-curvature="0" />
        <path
           id="path4576"
           style="font-size:74.02223206px;letter-spacing:1.85055578px;fill:#ce1126;fill-opacity:1"
           d="m 430.7251,411.65887 0,-9.90336 20.31275,0 0,9.90336 -20.31275,0 z"
           inkscape:connector-curvature="0" />
      </g>
      <g
         transform="matrix(0.57567341,0,0,0.57567341,21.607168,340.22296)"
         id="text4422"
         style="font-size:40.46656036px;font-style:normal;font-variant:normal;font-weight:bold;font-stretch:normal;text-align:start;line-height:125%;letter-spacing:0px;word-spacing:0px;writing-mode:lr-tb;text-anchor:start;fill:#ce1126;fill-opacity:1;stroke:none;font-family:Swis721 BT;-inkscape-font-specification:'Swis721 BT, Bold'">
        <path
           inkscape:connector-curvature="0"
           id="path4561"
           style="font-size:74.02223206px;letter-spacing:4.04665565px;fill:#ce1126;fill-opacity:1"
           d="m 290.33501,504.43671 0,-53.23963 10.95153,0 0,53.23963 -10.95153,0 z" />
        <path
           inkscape:connector-curvature="0"
           id="path4563"
           style="font-size:74.02223206px;letter-spacing:4.04665565px;fill:#ce1126;fill-opacity:1"
           d="m 327.20012,494.82249 12.97557,0 q 4.59025,0 6.68658,-1.66261 2.09633,-1.66261 2.09633,-5.24083 0,-3.7228 -2.06018,-5.34926 -2.06019,-1.66261 -6.79501,-1.66261 l -12.90329,0 0,13.91531 z m 0,-23.02352 12.50571,0 q 4.04809,0 5.92756,-1.37346 1.87947,-1.4096 1.87947,-4.40952 0,-2.92764 -1.84333,-4.22881 -1.80718,-1.33732 -6.03599,-1.33732 l -12.43342,0 0,11.34911 z m -10.48167,32.63774 0,-53.23963 25.08371,0 q 8.16847,0 12.43342,3.4698 4.3011,3.43364 4.3011,10.01179 0,4.04809 -1.59032,6.75887 -1.59033,2.71077 -4.77097,4.19266 4.12038,1.66261 6.14442,4.80711 2.06019,3.10836 2.06019,7.77089 0,7.77089 -5.06011,11.9997 -5.06011,4.22881 -14.34904,4.22881 l -24.2524,0 z" />
        <path
           inkscape:connector-curvature="0"
           id="path4565"
           style="font-size:74.02223206px;letter-spacing:4.04665565px;fill:#ce1126;fill-opacity:1"
           d="m 373.318,504.43671 0,-53.23963 10.95153,0 0,53.23963 -10.95153,0 z" />
        <path
           inkscape:connector-curvature="0"
           id="path4567"
           style="font-size:74.02223206px;letter-spacing:4.04665565px;fill:#ce1126;fill-opacity:1"
           d="m 438.01373,498.14771 q -2.96378,4.01195 -6.75887,5.89142 -3.75894,1.87947 -8.8552,1.87947 -11.16839,0 -18.10797,-7.73475 -6.90344,-7.77089 -6.90344,-20.38503 0,-12.72257 6.90344,-20.34888 6.90344,-7.62632 18.39712,-7.62632 10.0118,0 16.33694,4.80711 6.32514,4.77097 7.51788,13.1563 l -11.16839,0 q -1.01202,-4.15652 -4.15652,-6.32514 -3.10836,-2.16862 -8.13233,-2.16862 -6.68657,0 -10.5178,4.91553 -3.79509,4.8794 -3.79509,13.51774 0,8.67448 3.97581,13.59002 3.9758,4.91553 10.91538,4.91553 5.20469,0 8.71063,-3.07221 3.50593,-3.07221 4.33724,-8.42147 l -12.07199,0 0,-9.10821 22.04764,0 0,28.80651 -7.33717,0 -1.33731,-6.289 z" />
      </g>
      <g
         transform="matrix(0.57567341,0,0,0.57567341,19.214759,338.62802)"
         id="text4426"
         style="font-size:37.01111602999999700px;font-style:normal;font-variant:normal;font-weight:bold;font-stretch:normal;text-align:start;line-height:125%;letter-spacing:0px;word-spacing:0px;writing-mode:lr-tb;text-anchor:start;fill:#000000;fill-opacity:1;stroke:#ffff00;font-family:Swis721 BT;-inkscape-font-specification:'Swis721 BT, Bold';stroke-opacity:1;stroke-width:1.00056729000000000;stroke-miterlimit:4;stroke-dasharray:none">
        <path
           id="path4552"
           style="font-style:normal;font-variant:normal;font-weight:bold;font-stretch:normal;letter-spacing:3.70111156000000020px;fill:#000000;fill-opacity:1;font-family:Swis721 BT;-inkscape-font-specification:Swis721 BT Bold;stroke:#ffff00;stroke-opacity:1;stroke-width:1.00056729000000000;stroke-miterlimit:4;stroke-dasharray:none"
           d="m 333.98779,564.71051 0,-26.61981 18.57785,0 0,4.62639 -13.17437,0 0,6.03599 11.5479,0 0,4.62639 -11.5479,0 0,11.33104 -5.40348,0 z"
           inkscape:connector-curvature="0" />
        <path
           id="path4554"
           style="font-style:normal;font-variant:normal;font-weight:bold;font-stretch:normal;letter-spacing:3.70111156000000020px;fill:#000000;fill-opacity:1;font-family:Swis721 BT;-inkscape-font-specification:Swis721 BT Bold;stroke:#ffff00;stroke-opacity:1;stroke-width:1.00056729000000000;stroke-miterlimit:4;stroke-dasharray:none"
           d="m 359.64618,538.01841 5.52998,0 0,16.69838 q 0,3.09028 1.22889,4.51795 1.22888,1.40961 3.90351,1.40961 2.71078,0 3.93966,-1.40961 1.24696,-1.4096 1.24696,-4.51795 l 0,-16.69838 5.47577,0 0,17.29475 q 0,4.89746 -2.74692,7.51788 -2.72885,2.62042 -7.87932,2.62042 -5.18662,0 -7.95161,-2.60235 -2.74692,-2.62041 -2.74692,-7.53595 l 0,-17.29475 z"
           inkscape:connector-curvature="0" />
        <path
           id="path4556"
           style="font-style:normal;font-variant:normal;font-weight:bold;font-stretch:normal;letter-spacing:3.70111156000000020px;fill:#000000;fill-opacity:1;font-family:Swis721 BT;-inkscape-font-specification:Swis721 BT Bold;stroke:#ffff00;stroke-opacity:1;stroke-width:1.00056729000000000;stroke-miterlimit:4;stroke-dasharray:none"
           d="m 390.03939,564.71051 0,-26.61981 5.72877,0 10.80696,18.28869 0,-18.28869 5.40348,0 0,26.61981 -5.65649,0 -10.87924,-18.2887 0,18.2887 -5.40348,0 z"
           inkscape:connector-curvature="0" />
        <path
           id="path4558"
           style="font-style:normal;font-variant:normal;font-weight:bold;font-stretch:normal;letter-spacing:3.70111156000000020px;fill:#000000;fill-opacity:1;font-family:Swis721 BT;-inkscape-font-specification:Swis721 BT Bold;stroke:#ffff00;stroke-opacity:1;stroke-width:1.00056729000000000;stroke-miterlimit:4;stroke-dasharray:none"
           d="m 426.57703,559.9034 4.39146,0 q 3.81315,0 5.5119,-1.9879 1.71683,-2.00597 1.71683,-6.48779 0,-4.46374 -1.59032,-6.56007 -1.59032,-2.09634 -4.96976,-2.09634 l -5.06011,0 0,17.1321 z m -5.36734,4.80711 0,-26.61981 10.42745,0 q 6.12635,0 9.12628,3.30714 3.018,3.30715 3.018,10.02987 0,3.65051 -1.12046,6.43358 -1.10238,2.78306 -3.21678,4.48181 -1.59033,1.26503 -3.61437,1.82526 -2.02405,0.54215 -5.67456,0.54215 l -8.94556,0 z"
           inkscape:connector-curvature="0" />
      </g>
    </g>
  </g>
</svg>
