<svg version="1.1" id="Layer_1" xmlns="http://www.w3.org/2000/svg" xmlns:xlink="http://www.w3.org/1999/xlink" x="0px" y="0px" viewBox="0 0 132.6 132.6" style="enable-background:new 0 0 132.6 132.6;" xml:space="preserve">
 <style type="text/css">
  .st0{fill:#10357F;}
	.st1{fill:#FFFFFF;}
	.st2{fill:#00AEEF;}
	.st3{fill:#ED1C24;}
	.st4{fill:#FDB913;}
 </style>
 <g>
  <path class="st0" d="M117.4,0c8.4,0,15.2,6.9,15.2,15.2v102.1c0,8.4-6.9,15.2-15.2,15.2H15.2c-8.4,0-15.2-6.9-15.2-15.2V15.2
		C0,6.9,6.9,0,15.2,0H117.4">
  </path>
  <path class="st1" d="M117.4,6.7H15.2c-4.7,0-8.4,3.9-8.4,8.4v102.1c0,4.7,3.9,8.4,8.4,8.4h102.1c4.7,0,8.4-3.9,8.4-8.4V15.1
		C125.7,10.5,122.1,6.7,117.4,6.7">
  </path>
  <path class="st0" d="M66.3,9.9l0.3,0.7c0,0,1.3,2.2,4.7,4.4c3.3,2.2,8.4,4.4,16.1,4.4c2.2,0,4.7-0.2,7.4-0.7h0.5l0.2,0.3
		c1.8,6,7.4,9,12.4,10.5c5,1.5,9.7,1.5,9.7,1.5h1l-0.5,0.8c0,0-1.2,1.7-2.3,4.7c-1.3,3-2.5,7.5-2.5,13.1v46.7c0,0.3,0,0.7,0,1
		c0,6.4-0.3,13.4-10.2,15.7c-10,2.3-31,7.4-32.8,7.7c-2,0.5-3.5,2.3-3.5,2.3l-0.3,0.7l-0.3-0.5c0,0-1.5-1.8-3.5-2.3
		c-1.8-0.5-22.9-5.5-33-7.9c-9.9-2.3-10.2-9.4-10.2-15.7c0-0.3,0-0.7,0-1V49.6c0-5.7-1.2-10-2.3-13.1c-1.2-3-2.3-4.7-2.3-4.7
		L14.1,31h1c0,0,4.7,0,9.7-1.5C30,28,35.3,24.8,37.2,18.9l0.2-0.3h0.5c2.7,0.5,5.2,0.7,7.4,0.7c7.5,0,12.7-2.2,16.1-4.4
		c3.3-2.2,4.7-4.4,4.7-4.4L66.3,9.9z">
  </path>
  <path class="st1" d="M108.5,36.5c-0.2,0-0.3,0-0.7-0.2c-1.5-0.3-4.2-1-7.4-2.2c-3-1.2-6.4-3.3-8.2-7c0,0-0.5-1-0.8-1.7
		c0-0.3,0-0.5,0-0.5s-0.3,0-0.5,0.2c-0.3,0-1.8,0.3-1.8,0.3c-1.3,0.2-2.5,0.3-3.7,0.3c-6.7,0-12.4-2.5-15.6-4.4
		c-2-1.2-3.2-2.2-3.2-2.2s-1.3,1-3.2,2.2c-3.3,1.8-9,4.4-15.6,4.4c-1.2,0-2.5,0-3.7-0.3c0,0-1.5-0.3-1.8-0.3c-0.2,0-0.5-0.2-0.5-0.2
		s-0.2,0.3-0.2,0.5c-0.2,0.5-0.8,1.7-0.8,1.7c-1.8,3.7-5.2,5.9-8.2,7c-3.2,1.2-6,1.8-7.5,2.2c-0.3,0-0.5,0.2-0.7,0.2
		c-0.2,0-0.5,0-0.5,0s0,0.2,0.2,0.3c0,0.2,0.2,0.5,0.3,0.7c0.3,1,1,2.7,1.3,4.7c0,0,0.5,3.2,0.5,6.2v4.7h24.4
		c1.5-7.4,8.2-12.9,16.1-12.9s14.4,5.5,16.1,12.9h24.4v-4.7c0-3,0.5-6.2,0.5-6.2c0.3-2.2,1-3.7,1.3-4.7c0.2-0.2,0.2-0.5,0.3-0.7
		c0-0.2,0.2-0.3,0.2-0.3S108.7,36.5,108.5,36.5">
  </path>
  <path class="st2" d="M50.2,59.9H26v31.8c0,0.8,0,5.5,0,6.5c0,6.7,2.7,7.7,8.2,9c4,1,12.1,2.8,17.6,4.2c2.7,0.7,5.2,1.2,7.2,1.7
		c1.8,0.5,3.3,0.8,3.3,0.8s0.3,0,0.7,0.2V72.7C56.6,71.2,51.6,66.3,50.2,59.9">
  </path>
  <path class="st3" d="M69.8,72.5V114c0.5,0,0.7-0.2,0.7-0.2c0.2,0,1.5-0.3,3.3-0.8c1.8-0.5,4.4-1,7.2-1.7c5.5-1.3,13.4-3.2,17.6-4.2
		c5.5-1.3,8.2-2.5,8.2-9c0-1,0-5.5,0-6.5V59.8H82.4C81,66.3,76,71.2,69.8,72.5">
  </path>
  <path class="st4" d="M78.7,59.3l2.7-2.7l-2.7-2.7l-4.2,1.2c-0.2-1.2-0.7-2.2-1.3-3l3.9-2.2V46h-3.9L71,49.9c-0.8-0.7-2-1-3-1.3
		l1.2-4.2l-2.8-2.8l-2.7,2.7l1.2,4.2c-1.2,0.2-2.2,0.7-3,1.3l-2.2-3.9h-3.9v3.9l3.9,2.2c-0.7,0.8-1,2-1.3,3l-4.2-1.2l-2.8,2.8
		l2.7,2.7l4.2-1.2c0.2,1.2,0.7,2.2,1.3,3l-3.9,2.2v3.9h3.9l2.2-3.9c0.8,0.7,2,1,3,1.3L63.5,69l2.7,2.7l2.7-2.7l-1-4.4
		c1.2-0.2,2.2-0.7,3-1.3l2.2,3.9h3.9v-3.9L73,61.1c0.7-0.8,1-2,1.3-3L78.7,59.3z">
  </path>
  <path class="st0" d="M40.7,75l0.5-2.2l-1.8-0.3c0,0-0.3-0.5-0.7-0.8h2.2c0,0-0.3-0.3-0.3-0.5c0-0.2-0.3-0.2-0.7-0.2h-2.7
		c0.2-0.2,0.2-1,0.3-1.2c0-0.2,0.3-0.7,1.2-0.8c1.2-0.2,2.2-0.3,2.2-0.3s0.5-0.8,1.5-0.8H45c1.3,0,1.7,1,1.8,2.3
		c0.2,0.7,0.5,2.8,0.7,5h10.7l-0.3,4l-7.5,0.2V80l7.2,1l-1.3,3.7l-6-1.3l-0.2,0.5l5.4,2.8l-2.3,3l-3.7-2.7l-0.3,0.3l2.5,3.7l-1,0.7
		l2.2,3l1.2-2.2h2.2l0.5,2.7l-1,2l-0.3-1.8h-0.7l-1.7,2.7l0.5,0.8h1.2l-1,1.2h-1l-1.5-2l0.7-1.5l-2.7-3.9l-1.8,1.2l3.9,8.2l-2.7,1.7
		l-2.8-7.4l1.2,8.5l-2.7,1.7l-2.7-1.7l1.2-8.5l-2.7,7.5l-2.7-1.7l3.9-8.2l-1.8-1.2l-2.7,3.9l0.7,1.5l-1.5,2.2h-1l-1-1.2h1.2l0.5-0.8
		l-1.7-2.5H33l-0.3,1.8l-1-2l0.5-2.7h2.2l1.2,2.2l2.2-3l-1-0.7l2.5-3.7l-0.3-0.3l-3.7,2.2l-2.3-3l5.4-2.8L38,83.4l-6,1.3L30.8,81
		l7.2-1v-0.7l-7.5-0.2l-0.7-4.4h10.9V75z">
  </path>
  <path class="st0" d="M101.1,90.1l0.8-1.5l-1.2-1.3l-5.9-0.8c0-0.7,0-1.5,0-2.3c0.7,0.3,1.5,0.7,2.3,1c1.5-1.2,4-3.2,4-3.2v-5.4
		l-2,1.5v2.3l-2.2,1.3c0,0-0.7-0.3-2.2-1C94.3,80,93.3,79,93.3,79l0.2-1c0,0,1.7,0,2,0c0.3,0,1,0.5,1,0.5l0.8-3h-3
		c-0.5,0-0.3-0.5-0.3-0.8c0.2-0.5,0.2-1,1-1h2.8c0,0,0.5-1.3,0.7-2s-0.3-1.3-0.8-1.3c-0.5,0-1.2,0-1.8,0c0-0.3-0.7-1.5-1.3-1.5h-1.5
		l-0.8-0.7h-7.7l1,1.3l-3.5,3.3c0,0-0.8,2-0.8,3.3l3-1.5l-0.2,0.8L80.5,78c0,1,0.5,2,0.7,3l2.2-1.8V80l-1.8,2.3l1,2.2l1.5-1.8
		l0.2,1.2l-1.8,3.9c0,0-1.7,0.5-2.5,2c-3,0.3-4-2.8-2.3-5.2c4.5-6.5,0.3-9.4,0.3-9.4h-2.2v2c0,0,1.5,0,1.7,2c0.2,2.7-3,4-3.2,7.7
		c-0.3,2.5,1.2,5,4.9,5.4c0,0.3,0,0.7,0.2,1.2c0,0.3,0.2,0.7,0.3,1c0.3,1.2,1,3,1,3s-0.8,2.7-2.2,3.2c1.8,2.3,4.2,5.5,4.2,5.5h6.9
		l-1.2-3l-3-0.2l-1.3-2.7l3-4c0.2,0,0.2,0,0.3,0c0.8,0,2.3,0,3,0c1,0,1,0.7,1,0.8c-0.2,1.2-0.3,2-0.3,2h7.2l2.3-4.9l-2.3,0.2
		l-1.3,1.7h-2c0,0,0.2-0.7,0.8-2.5c0.2-0.5-0.2-1.3-1.2-1.3c-0.3,0-1.5,0-2.5,0c0.5-0.7,1.2-2,1.8-2.8h3.7l-0.2,0.8L101.1,90.1z">
  </path>
  <polygon class="st4" points="66.3,34.2 70.3,37 68.8,32.3 72.8,29.3 67.8,29.3 66.3,24.6 64.8,29.3 59.8,29.3 63.8,32.3 62.3,37 	
		">
  </polygon>
  <polygon class="st4" points="42.7,42.2 46.9,45.2 45.2,40.3 49.2,37.5 44.4,37.5 42.7,32.6 41.2,37.5 36.2,37.5 40.2,40.3 
		38.7,45.2 	">
  </polygon>
  <polygon class="st4" points="89.7,42.2 85.7,45.2 87.4,40.3 83.2,37.5 88.2,37.5 89.7,32.6 91.4,37.5 96.4,37.5 92.3,40.3 
		93.9,45.2 	">
  </polygon>
 </g>
</svg>