<svg version="1.1" id="Layer_1" xmlns="http://www.w3.org/2000/svg" xmlns:xlink="http://www.w3.org/1999/xlink" x="0px" y="0px" viewBox="0 0 145.2 120.6" style="enable-background:new 0 0 145.2 120.6;" xml:space="preserve">
 <style type="text/css">
  .st0{fill:#4B81C2;}
 </style>
 <g>
  <path class="st0" d="M44.1,68c3.6,0,5.9-1.9,5.9-4.8v-0.1c0-3.1-2.2-4.8-6-4.8h-7.4V68H44.1 M31.7,53.7h12.8c3.6,0,6.5,1.1,8.3,2.9
		c1.5,1.6,2.4,3.7,2.4,6.2v0.1c0,4.7-2.8,7.6-6.8,8.7l7.8,10.9h-6l-7.1-10h-6.3v10h-5.1V53.7z">
  </path>
  <path class="st0" d="M59.6,68.2L59.6,68.2c0-8.3,6.1-15,14.8-15c5.3,0,8.5,1.9,11.3,4.5l-3.2,3.7c-2.3-2.1-4.8-3.6-8.1-3.6
		c-5.5,0-9.5,4.5-9.5,10.2v0.1c0,5.6,4,10.2,9.5,10.2c3.5,0,5.8-1.4,8.3-3.7l3.2,3.3c-3,3.1-6.3,5.1-11.7,5.1
		C65.9,83,59.6,76.4,59.6,68.2">
  </path>
  <path class="st0" d="M103.4,70.1h-8V78h8.4c3.5,0,5.5-1.4,5.5-3.9V74C109.3,71.6,107.4,70.1,103.4,70.1 M107.7,61.9
		c0-2.3-1.8-3.7-5.1-3.7h-7.3v7.6h6.9C105.5,65.8,107.7,64.6,107.7,61.9L107.7,61.9z M90.4,53.7h12.9c3.3,0,5.9,0.9,7.5,2.5
		c1.3,1.3,1.9,2.8,1.9,4.8v0.1c0,3.5-2,5.3-4.1,6.4c3.4,1.2,5.7,3.1,5.7,7v0.1c0,5.1-4.2,7.9-10.6,7.9H90.4V53.7z">
  </path>
  <path class="st0" d="M118.9,68.2L118.9,68.2c0-8.3,6.1-15,14.8-15c5.3,0,8.5,1.9,11.3,4.5l-3.2,3.7c-2.3-2.1-4.8-3.6-8.1-3.6
		c-5.5,0-9.5,4.5-9.5,10.2v0.1c0,5.6,4,10.2,9.5,10.2c3.5,0,5.8-1.4,8.3-3.7l3.2,3.3c-3,3.1-6.3,5.1-11.7,5.1
		C125.1,83,118.9,76.4,118.9,68.2">
  </path>
  <polyline class="st0" points="52.5,120.6 0.3,90.5 0.3,30.2 52.5,0.1 104.6,31.5 104.6,51.5 100.2,51.5 100.2,34 52.5,5.3 
		4.8,32.8 4.8,87.9 52.5,115.4 100.2,87.9 100.2,84.7 104.6,84.7 104.6,90.5 52.5,120.6 	">
  </polyline>
  <path class="st0" d="M43.8,67.9c3.6,0,5.9-1.9,5.9-4.8V63c0-3.1-2.2-4.8-6-4.8h-7.4v9.7H43.8 M31.3,53.6h12.8
		c3.6,0,6.5,1.1,8.3,2.9c1.5,1.6,2.4,3.7,2.4,6.2v0.1c0,4.7-2.8,7.6-6.8,8.7l7.8,10.9h-6l-7.1-10h-6.3v10h-5.1V53.6z">
  </path>
  <path class="st0" d="M59.3,68.1L59.3,68.1c0-8.3,6.1-15,14.8-15c5.3,0,8.5,1.9,11.3,4.5l-3.2,3.7c-2.3-2.1-4.8-3.6-8.1-3.6
		c-5.5,0-9.5,4.5-9.5,10.2V68c0,5.6,4,10.2,9.5,10.2c3.5,0,5.8-1.4,8.3-3.7l3.2,3.3c-3,3.1-6.3,5.1-11.7,5.1
		C65.6,82.9,59.3,76.4,59.3,68.1">
  </path>
  <path class="st0" d="M103.1,70h-8v7.9h8.4c3.5,0,5.5-1.4,5.5-3.9v-0.1C109,71.5,107.1,70,103.1,70 M107.4,61.8
		c0-2.3-1.8-3.7-5.1-3.7h-7.3v7.6h6.9C105.2,65.7,107.4,64.5,107.4,61.8L107.4,61.8z M90.1,53.6H103c3.3,0,5.9,0.9,7.5,2.5
		c1.3,1.3,1.9,2.8,1.9,4.8V61c0,3.5-2,5.3-4.1,6.4c3.4,1.2,5.7,3.1,5.7,7v0.1c0,5.1-4.2,7.9-10.6,7.9H90.1V53.6z">
  </path>
  <path class="st0" d="M118.5,68.1L118.5,68.1c0-8.3,6.1-15,14.8-15c5.3,0,8.5,1.9,11.3,4.5l-3.2,3.7c-2.3-2.1-4.8-3.6-8.1-3.6
		c-5.5,0-9.5,4.5-9.5,10.2V68c0,5.6,4,10.2,9.5,10.2c3.5,0,5.8-1.4,8.3-3.7l3.2,3.3c-3,3.1-6.3,5.1-11.7,5.1
		C124.8,82.9,118.5,76.4,118.5,68.1">
  </path>
  <polyline class="st0" points="52.2,120.5 0,90.4 0,30.1 52.2,0 104.3,31.4 104.3,51.4 99.9,51.4 99.9,33.9 52.1,5.2 4.5,32.7 
		4.5,87.8 52.2,115.3 99.9,87.8 99.9,84.6 104.3,84.6 104.3,90.4 52.2,120.5 	">
  </polyline>
 </g>
</svg>