<svg class="_seabankLogo_aude5_694 row-start" fill="none" height="44" viewBox="0 0 136 44" width="136" xmlns="http://www.w3.org/2000/svg"><g clip-path="url(#clip0_44718_12112)"><rect fill="white" height="15.531" width="16.4446" x="10.5063" y="11.5896"></rect><path d="M9.50549 34.9517C12.4479 34.7894 14.8608 35.8204 17.4254 36.9087C20.3085 38.1428 23.2927 39.3974 27.4674 39.229C28.517 39.1856 29.5547 38.9893 30.5475 38.646C30.8786 38.552 31.2331 38.5893 31.5377 38.7495C31.8424 38.9098 32.0741 39.1811 32.1842 39.5073C32.2942 39.8334 32.2747 40.1894 32.1295 40.5015C31.9843 40.8135 31.7243 41.0582 31.4039 41.1841C30.1681 41.6164 28.8743 41.8611 27.566 41.9106C27.0691 41.9291 26.5615 41.9436 26.0748 41.9292C22.0748 41.8142 19.0704 40.5368 16.3824 39.3931C14.0212 38.3829 11.9658 37.5274 9.6969 37.6382C8.49327 37.757 7.34223 38.1913 6.35999 38.897C6.08206 39.1207 5.72643 39.2242 5.3717 39.186C5.01684 39.1477 4.69124 38.9699 4.46741 38.6919C4.24372 38.4139 4.13906 38.0584 4.17737 37.7036C4.2157 37.3489 4.39373 37.0241 4.67151 36.8003C6.0818 35.7509 7.75483 35.1108 9.50549 34.9517ZM9.44397 30.8394C13.7047 30.6607 16.5324 31.9007 19.2614 33.0835C21.8549 34.2108 24.2991 35.2825 28.0446 35.1265C30.9747 35.0053 33.5478 33.5164 34.8209 32.6313C35.1241 32.4349 35.4919 32.3641 35.8463 32.4341C36.2009 32.5042 36.5147 32.71 36.7203 33.0073C36.9259 33.3046 37.0073 33.6703 36.9479 34.0269C36.8884 34.3833 36.6929 34.7031 36.402 34.9175C34.8783 35.9689 31.7832 37.7574 28.1569 37.895C27.7396 37.9251 27.3211 37.9337 26.903 37.9214C23.2047 37.8434 20.6333 36.7257 18.1364 35.6333C15.5861 34.5183 13.1748 33.4698 9.54651 33.6177C6.4131 33.7451 3.63896 35.626 2.26526 36.7349C1.97759 36.9661 1.60972 37.0734 1.2428 37.0337C0.875609 36.9938 0.53871 36.8098 0.307251 36.522C0.0757922 36.2341 -0.0314346 35.8657 0.00842285 35.4985C0.0483603 35.1315 0.232408 34.7953 0.520142 34.564C2.15674 33.2354 5.49538 30.9914 9.44397 30.8394Z" fill="#2673DD"></path><path d="M18.7059 1.44598C21.1565 1.44598 23.5835 1.92806 25.8475 2.86591C28.1116 3.80377 30.1685 5.17887 31.9012 6.9118C33.6339 8.64464 35.0086 10.7015 35.9462 12.9655C36.8838 15.2296 37.3663 17.6566 37.3661 20.1071C37.3661 24.8998 35.559 29.0603 32.6083 32.3581C31.4522 32.8982 30.0721 33.5514 28.6141 33.6315C28.1583 33.6575 27.7199 33.6661 27.2997 33.6579C30.0366 31.9143 32.1812 29.3819 33.4501 26.3952C34.7188 23.4086 35.053 20.1076 34.4081 16.9274C33.7631 13.7471 32.169 10.8372 29.8368 8.58075C27.5046 6.32434 24.5435 4.82735 21.3436 4.28778C18.1437 3.74822 14.8552 4.19142 11.912 5.55829C8.96895 6.92518 6.50944 9.1521 4.8573 11.945C3.20517 14.738 2.43775 17.9662 2.6571 21.2038C2.87652 24.4413 4.0721 27.5362 6.08582 30.0807C5.2294 30.336 4.39486 30.6607 3.5907 31.0505C1.5689 28.2664 0.356968 24.9769 0.0887451 21.5466C-0.179404 18.1161 0.506463 14.6776 2.07117 11.613C3.63584 8.54852 6.0182 5.97682 8.95398 4.18231C11.8898 2.38784 15.2651 1.44108 18.7059 1.44598ZM18.703 5.31024C22.0575 5.31053 25.3113 6.45861 27.9227 8.56415C30.5342 10.6698 32.3459 13.6062 33.0575 16.8845C33.7691 20.1628 33.3374 23.5858 31.8339 26.5847C30.3303 29.5835 27.8455 31.9778 24.7928 33.3688C22.9736 33.028 21.4091 32.3885 19.7889 31.7253L19.7518 31.7097C16.9181 30.5474 13.6877 29.2241 9.02429 29.5075C8.56044 29.5362 8.0984 29.5912 7.6405 29.6706C5.78283 27.5468 4.57676 24.9319 4.16589 22.1403C3.75512 19.3489 4.15718 16.4983 5.3241 13.9294C6.49107 11.3604 8.37336 9.18208 10.746 7.65497C13.1186 6.12784 15.8814 5.31629 18.703 5.31805V5.31024ZM11.7333 12.3698V26.1276H14.4022V17.9138C14.4579 17.9342 14.5041 17.9757 14.5302 18.029C15.524 19.8483 17.4969 23.5964 17.4969 23.5964H19.9618C19.9618 23.5964 21.7852 20.0494 22.701 18.3718C22.7913 18.1995 22.8975 18.0312 22.996 17.861L23.0575 17.8815V26.1237H25.6844L25.6962 12.4147C25.6448 12.3987 23.068 12.4146 23.0458 12.4147C23.0458 12.4147 22.7147 13.1074 22.5546 13.4011C21.391 15.5393 20.2279 17.6779 19.0643 19.8161C18.9597 20.0007 18.8445 20.2057 18.7235 20.4108C18.6763 20.3431 18.653 20.3166 18.6366 20.2858C17.2341 17.7212 15.7173 14.9386 14.3251 12.3698H11.7333Z" fill="#EA5F00"></path><path clip-rule="evenodd" d="M49.8793 35.4613H45.7673L44.983 37.616H42.4819L46.7211 27.2018H48.9043L53.1646 37.616H50.6635L49.8793 35.4613ZM46.4032 33.7291H49.2434L47.8021 29.8212L46.382 33.7291H46.4032ZM60.3076 33.7925H62.1728L64.3136 37.5949H66.8147V37.4892L64.356 33.2222C64.9707 32.9898 65.5006 32.6096 65.8821 32.0815C66.2424 31.5533 66.412 30.9407 66.3908 30.307C66.3908 29.3142 66.0305 28.5326 65.2886 27.9834C64.5468 27.4341 63.5294 27.1595 62.1728 27.1595H58.0608V37.5737H60.2864V33.7714L60.3076 33.7925ZM62.194 31.9758H60.3076V28.9973H62.194C62.8299 28.9973 63.2962 29.0818 63.593 29.3776C63.7413 29.5254 63.8685 29.7155 63.9533 29.9268C64.0381 30.1169 64.0593 30.3281 64.0593 30.5605C64.0593 30.7718 64.0381 30.983 63.9533 31.1731C63.8685 31.3632 63.7413 31.5533 63.5717 31.6801C63.2538 31.9547 62.7875 31.997 62.2152 31.997M110.308 32.0181C110.118 32.5462 110.033 33.0954 110.054 33.6658C110.054 34.215 110.139 34.7642 110.308 35.2923C110.478 35.7571 110.711 36.1796 111.029 36.5598C111.326 36.8978 111.707 37.1935 112.11 37.3836C112.534 37.5737 113.022 37.6794 113.488 37.6794C113.869 37.6794 114.272 37.616 114.632 37.447C114.993 37.278 115.332 37.0456 115.586 36.7288V37.5949H117.621V29.8634H115.586V30.6028C115.332 30.307 114.993 30.0535 114.632 29.8845C114.272 29.7155 113.891 29.6522 113.488 29.6522C113.022 29.6522 112.555 29.7367 112.11 29.9479C111.686 30.138 111.326 30.4126 111.029 30.7506C110.711 31.1309 110.457 31.5533 110.308 32.0181ZM113.785 35.7993C114.802 35.7993 115.65 34.8487 115.65 33.6869C115.65 32.5251 114.823 31.5745 113.785 31.5745C112.746 31.5745 111.919 32.5251 111.919 33.6869C111.919 34.8487 112.746 35.7993 113.785 35.7993ZM69.2098 37.2991C68.7859 36.9823 68.468 36.5598 68.2984 36.0739C68.1712 35.7148 68.1077 35.3346 68.0865 34.9332C68.0653 34.553 68.0441 34.1305 68.0441 33.6235V29.9268H70.1213V33.1588C70.1213 33.6658 70.1213 33.9826 70.1425 34.2572C70.1425 34.4896 70.1848 34.7009 70.2272 34.9332C70.2908 35.2712 70.4604 35.5669 70.7147 35.7782C70.9691 36.0106 71.3082 36.1162 71.6685 36.0951C71.9441 36.0951 72.2196 36.0317 72.4528 35.8838C72.6436 35.7782 72.8131 35.6303 72.9191 35.4402C73.0251 35.229 73.1099 34.9966 73.1523 34.7642C73.1946 34.5107 73.2158 34.2361 73.237 33.9826V29.9479H75.3566V37.616H73.237V37.1935C72.9827 37.4048 72.6859 37.5737 72.3468 37.6582C71.9865 37.7639 71.6262 37.8272 71.2658 37.8272C70.5876 37.8272 69.6761 37.6582 69.2098 37.2991ZM81.9697 31.8068C81.6942 31.7646 81.4186 31.7435 81.1643 31.7435C80.3164 31.7435 79.7441 32.0181 79.4898 32.5462V37.616H77.2219V29.8845H79.3626L79.4262 30.814C79.617 30.476 79.8925 30.2225 80.2316 30.0324C80.5708 29.8423 80.9311 29.7578 81.3126 29.7578C81.5458 29.7578 81.8001 29.7789 82.0121 29.8423V31.828L81.9697 31.8068ZM91.9953 37.5949H94.2209V27.1595H91.9953V37.5949ZM107.299 31.997C107.405 31.8913 107.511 31.8068 107.595 31.6801C107.723 31.5533 107.807 31.4266 107.892 31.2576C107.998 31.0675 108.062 30.8774 108.125 30.6661C108.189 30.3915 108.21 30.1169 108.21 29.8423C108.21 29.5254 108.146 29.2086 108.019 28.9128C107.892 28.6171 107.701 28.3425 107.468 28.1101C107.214 27.8566 106.917 27.6454 106.599 27.4764C106.239 27.2863 105.857 27.1806 105.455 27.1384C105.158 27.0961 104.84 27.075 104.543 27.075C104.246 27.075 103.865 27.075 103.483 27.075H100.516V37.4892H104.67C105.073 37.4892 105.391 37.4892 105.645 37.4892C106.069 37.447 106.472 37.3625 106.875 37.2146C107.235 37.0879 107.595 36.8767 107.871 36.6232C108.147 36.3697 108.38 36.0528 108.549 35.7148C108.719 35.3346 108.804 34.9332 108.804 34.5107C108.846 33.9193 108.676 33.3489 108.337 32.8419C108.062 32.4617 107.701 32.1448 107.277 31.9547M102.508 28.9128H104.246C104.501 28.9128 104.734 28.9339 104.925 28.9551C105.285 28.9973 105.603 29.1029 105.9 29.2931C106.027 29.3776 106.112 29.4832 106.197 29.6099C106.26 29.7367 106.281 29.8845 106.281 30.0113C106.281 30.1803 106.281 30.3493 106.197 30.4971C106.133 30.645 106.027 30.7929 105.9 30.8774C105.603 31.0675 105.264 31.1731 104.925 31.2154C104.692 31.2365 104.48 31.2576 104.246 31.2576H102.487V28.9128H102.508ZM106.408 35.2501C106.112 35.4825 105.645 35.6303 105.01 35.6726C104.819 35.6726 104.564 35.6937 104.268 35.6937H102.508V32.9898H104.204C104.437 32.9898 104.67 32.9898 104.925 32.9898C105.433 32.9898 105.921 33.1165 106.366 33.37C106.536 33.4757 106.663 33.6235 106.748 33.7925C106.832 33.9615 106.875 34.1516 106.875 34.3206C106.875 34.4896 106.854 34.6797 106.769 34.8276C106.684 34.9966 106.578 35.1445 106.43 35.2501H106.408ZM125.633 30.2436C126.057 30.5605 126.375 30.983 126.566 31.4689C126.693 31.828 126.756 32.2082 126.778 32.6096C126.799 32.9898 126.82 33.4123 126.82 33.9193V37.5949H124.743V34.3417C124.743 33.8348 124.743 33.5179 124.722 33.2644C124.722 33.032 124.679 32.8208 124.637 32.5884C124.573 32.2504 124.404 31.9547 124.149 31.7435C123.895 31.5322 123.535 31.4266 123.196 31.4477C122.92 31.4477 122.644 31.5111 122.411 31.659C122.221 31.7646 122.051 31.9125 121.945 32.1237C121.839 32.3349 121.754 32.5673 121.712 32.7997C121.669 33.0532 121.648 33.3278 121.648 33.5813V37.616H119.507V29.9479H121.648V30.3704C121.903 30.1591 122.199 29.9902 122.517 29.9057C122.878 29.8 123.238 29.7367 123.598 29.7367C124.277 29.7367 125.188 29.9057 125.654 30.2648M132.522 32.9687L136.019 29.1452H133.475L130.593 32.2716V27.1595H128.516V37.616H130.593V35.1233L131.229 34.4051L133.73 37.616H136.125L132.5 32.9475L132.522 32.9687ZM82.6904 33.6658C82.6904 33.0954 82.7751 32.5462 82.9447 32.0181C83.1143 31.5533 83.3474 31.1309 83.6654 30.7506C83.9621 30.4126 84.3436 30.138 84.7464 29.9479C85.1703 29.7578 85.6578 29.6522 86.1241 29.6522C86.5056 29.6522 86.9083 29.7155 87.2687 29.8845C87.629 30.0535 87.9469 30.307 88.2225 30.6028V29.8634H90.2573V37.5949H88.2225V36.7288C87.9681 37.0456 87.629 37.278 87.2687 37.447C86.9083 37.616 86.5268 37.6794 86.1241 37.6794C85.6578 37.6794 85.1915 37.5737 84.7464 37.3836C84.3224 37.1935 83.9621 36.9189 83.6654 36.5598C83.3474 36.1796 83.0931 35.7571 82.9447 35.2923C82.7539 34.7642 82.6692 34.215 82.6904 33.6658ZM88.286 33.6869C88.286 34.8487 87.4594 35.7993 86.4208 35.7993C85.3822 35.7993 84.5556 34.8487 84.5556 33.6869C84.5556 32.5251 85.3822 31.5745 86.4208 31.5745C87.4594 31.5745 88.286 32.5251 88.286 33.6869Z" fill="#7A7A7A" fill-rule="evenodd"></path><path d="M114.834 12.2705L114.924 12.3174C114.931 12.2791 114.944 12.2421 114.962 12.2066C115.658 11.1822 116.676 10.7716 117.859 10.692C118.868 10.5897 119.882 10.8127 120.755 11.3285C121.309 11.6539 121.781 12.1014 122.133 12.6385C122.486 13.1742 122.71 13.7852 122.788 14.4232L122.787 14.4275C122.903 15.3283 122.963 16.2363 122.964 17.1456C122.987 18.6901 122.967 20.4434 122.967 22.0376H120.098V21.7136C120.098 20.2416 120.12 18.5636 120.086 17.093C120.067 16.4181 119.989 15.746 119.853 15.0854C119.556 13.6318 118.507 13.0705 117.122 13.2595C115.893 13.4286 115.137 14.2399 114.956 15.5556C114.881 16.0913 114.841 16.6312 114.836 17.1725C114.82 18.7113 114.836 20.5102 114.836 22.0902C114.743 22.103 112.451 22.0902 111.992 22.0902V10.6721C111.997 10.6039 112.004 10.5357 112.015 10.4675H114.834V12.2705Z" fill="#EA5F00"></path><path clip-rule="evenodd" d="M70.8254 22.0775C70.4291 22.0775 67.9443 22.0959 67.8871 22.0775V20.5628C67.7706 20.6665 67.6981 20.7248 67.6328 20.7887C66.5756 21.789 65.3053 22.1101 63.8859 21.9709C62.8742 21.8828 61.9123 21.5005 61.1152 20.8725C60.5582 20.4334 60.095 19.8878 59.7497 19.2683C59.4044 18.6488 59.1856 17.9668 59.106 17.262C58.8986 16.033 59.0536 14.7698 59.5509 13.6261C60.4275 11.6951 61.945 10.6749 64.0578 10.5115C64.7597 10.4362 65.4701 10.5244 66.1322 10.7688C66.7944 11.0146 67.3911 11.4096 67.8742 11.9239H67.8757V10.4546H70.8254V22.0775ZM67.8614 16.6468C68.1598 14.2569 66.2616 12.7239 64.0976 13.2751C62.7535 13.6133 61.9067 14.8309 61.8782 16.3157H61.8881C61.9137 16.6127 61.9564 16.9083 62.0146 17.1996C62.5702 19.4246 65.2258 19.8524 66.7276 18.7853C67.4523 18.2667 67.752 17.5008 67.86 16.6483L67.8614 16.6468Z" fill="#EA5F00" fill-rule="evenodd"></path><path clip-rule="evenodd" d="M109.989 10.4546V22.0775C109.593 22.0775 107.108 22.0959 107.051 22.0775V20.5628C106.934 20.6665 106.862 20.7248 106.796 20.7887C105.739 21.789 104.469 22.1101 103.049 21.9709C102.038 21.8828 101.076 21.5005 100.279 20.8725C99.7217 20.4334 99.2584 19.8878 98.9132 19.2683C98.5679 18.6488 98.349 17.9668 98.2695 17.262C98.062 16.033 98.217 14.7698 98.7143 13.6261C99.591 11.6951 101.108 10.6749 103.221 10.5115C103.923 10.4362 104.634 10.5244 105.296 10.7688C105.958 11.0146 106.555 11.4096 107.038 11.9239H107.039V10.4546H109.989ZM107.025 16.6468C107.323 14.2569 105.425 12.7239 103.261 13.2751C101.917 13.6133 101.07 14.8309 101.042 16.3157H101.052C101.077 16.6127 101.12 16.9083 101.178 17.1996C101.734 19.4246 104.389 19.8524 105.891 18.7853C106.616 18.2667 106.916 17.5008 107.024 16.6483L107.025 16.6468Z" fill="#EA5F00" fill-rule="evenodd"></path><path clip-rule="evenodd" d="M91.5559 7.02469C92.5078 6.99343 93.4528 7.20515 94.301 7.63994C96.6241 8.92155 96.8515 11.9821 95.2985 13.7397C95.2545 13.788 95.2132 13.842 95.1535 13.9116C95.3582 14.0651 95.5472 14.2001 95.7248 14.3579V14.3565C96.833 15.334 97.2294 16.5858 97.1428 18.028C97.0447 19.6677 95.8014 21.3472 93.5266 21.8104C92.785 21.961 92.0305 22.0405 91.2732 22.0504C89.4659 22.0831 87.4482 22.0504 85.6394 22.0504V7.02469H91.5559ZM88.7539 15.746C88.6133 15.746 88.5494 15.7887 88.5494 15.9506C88.5551 16.9808 88.5551 18.0336 88.5551 19.1135C88.6574 19.1135 88.7227 19.1276 88.7881 19.1276C89.777 19.1276 90.7646 19.1278 91.7521 19.1107C92.13 19.1064 92.5065 19.0681 92.8774 18.9984C94.1064 18.7583 94.4189 17.9328 94.1603 16.9027C93.9827 16.1979 93.3902 15.8966 92.7267 15.8582C91.4053 15.7787 90.0782 15.7787 88.7539 15.746ZM91.4422 9.95884C90.4973 9.93895 89.5496 9.94885 88.5777 9.94885H88.5763V12.8275H91.6738C91.9054 12.819 92.1356 12.7849 92.3587 12.7252C92.6315 12.6698 92.8773 12.5235 93.0578 12.3117C93.2382 12.1 93.3433 11.8343 93.3561 11.5558C93.3745 10.736 93.1046 10.2898 92.4141 10.0994C92.0972 10.0127 91.7704 9.96453 91.4422 9.95884Z" fill="#EA5F00" fill-rule="evenodd"></path><path d="M85.6395 22.0575C85.7289 22.0646 85.5798 22.0575 85.6309 22.0518H85.6395V22.0575Z" fill="#EA5F00"></path><path d="M127.783 14.75C128.172 14.2981 128.506 13.9145 128.831 13.5209C129.594 12.6186 131.019 10.908 131.399 10.4987H135.56C135.246 10.8582 134.765 11.3854 134.482 11.7051C133.389 12.9441 132.292 14.1817 131.19 15.4178C131.147 15.4505 131.113 15.4917 131.089 15.5385C131.063 15.5854 131.051 15.6366 131.048 15.6906C131.045 15.7432 131.055 15.7957 131.075 15.8455C131.096 15.8938 131.126 15.9393 131.166 15.9748H131.164C132.575 17.8987 133.969 19.8367 135.366 21.7705C135.421 21.8487 135.471 21.9311 135.555 22.0575H131.887C131.793 21.9613 129.934 19.2525 128.98 17.9399C128.948 17.8958 128.905 17.856 128.85 17.7949C128.499 18.1387 128.151 18.4669 127.825 18.8193C127.77 18.9216 127.748 19.0382 127.764 19.1519V22.0476H124.875V7.05022H127.783V14.75Z" fill="#EA5F00"></path><path d="M83.3874 22.0376C83.3817 22.103 83.369 21.9481 83.3591 22.0376H80.5073V11.6979H83.3874V22.0376Z" fill="#EA5F00"></path><path d="M45.3109 7.02608C46.8312 9.82803 48.4852 12.8644 50.0112 15.6636C50.041 15.7104 50.0736 15.7559 50.1077 15.7986C50.2385 15.5684 50.3636 15.3624 50.4786 15.1507C51.7489 12.8162 53.0177 10.4831 54.2852 8.15001C54.4599 7.82887 54.8222 7.07436 54.8222 7.07436H54.8237C54.8375 7.07428 57.6884 7.056 57.7165 7.07436V22.0306H54.8478V13.0406L54.7825 13.0208C54.6731 13.2055 54.5622 13.3888 54.4585 13.5778C53.461 15.4064 51.4689 19.2769 51.4689 19.2769H48.7864C48.7864 19.2769 46.6266 15.1792 45.5425 13.2027C45.5141 13.1445 45.4629 13.1003 45.4018 13.0775V22.0433H42.4819V7.02608H45.3109Z" fill="#EA5F00"></path><path d="M75.6635 12.2095L75.6308 12.2521V12.2535C76.499 11.2475 77.5305 10.584 78.9315 10.6408V13.4996C78.7184 13.5067 78.5067 13.5251 78.295 13.5564C76.8301 13.8463 75.8681 14.8551 75.7047 16.3669C75.6052 17.2862 75.6678 21.107 75.6678 22.0376H72.8274V10.4561H75.6635V12.2095Z" fill="#EA5F00"></path><path d="M81.9396 7.1597C82.3843 7.16539 82.8091 7.34723 83.1203 7.66547C83.4328 7.98373 83.6048 8.41143 83.602 8.85614C83.6006 9.07352 83.555 9.28951 83.4698 9.48985C83.3845 9.69019 83.261 9.87217 83.1047 10.0242C82.9498 10.1762 82.7651 10.2969 82.5633 10.3779C82.3601 10.4589 82.1442 10.5002 81.9268 10.4974C81.7094 10.4959 81.4934 10.4504 81.2931 10.3651C81.0928 10.2799 80.9108 10.1564 80.7588 10.0001C80.6067 9.84518 80.486 9.66039 80.4051 9.45863C80.3227 9.25688 80.2828 9.03952 80.2842 8.82215C80.2842 8.38168 80.4576 7.95961 80.7687 7.64701C81.0799 7.33586 81.5019 7.15832 81.9423 7.15831L81.9396 7.1597Z" fill="#EA5F00"></path></g><defs><clipPath id="clip0_44718_12112"><rect fill="white" height="42.6024" transform="translate(0 0.626526)" width="136"></rect></clipPath></defs></svg>