<svg width="123" height="40" viewBox="0 0 123 40" fill="none" xmlns="http://www.w3.org/2000/svg"> <path d="M68.366 12.891C64.6119 12.891 61.029 15.4595 59.8307 18.0766V13.244H53.582V38.8923H59.8307V27.0724C59.8307 20.6816 64.1595 17.6384 68.476 18.9409C72.3401 20.1095 72.3891 24.6622 72.3768 27.815V38.8923H78.6377V27.4254C78.6377 22.4102 77.745 18.7705 75.5439 16.2994C74.0276 14.5708 71.5453 12.891 68.366 12.891Z" fill="#785AFF"></path> <path d="M35.5795 12.124C27.8512 12.124 21.5781 18.3809 21.5781 26.062C21.5781 33.7431 27.8634 39.9999 35.5795 39.9999C43.2955 39.9999 49.5808 33.7431 49.5808 26.062C49.5808 18.3809 43.3077 12.124 35.5795 12.124ZM35.5795 33.7796C31.2996 33.7796 27.8268 30.3225 27.8268 26.062C27.8268 21.8015 31.2996 18.3444 35.5795 18.3444C39.8593 18.3444 43.3322 21.8015 43.3322 26.062C43.3322 30.3225 39.8593 33.7796 35.5795 33.7796Z" fill="#785AFF"></path> <path d="M87.7731 13.2561H81.5V19.4765H87.7364V38.9287H93.985V19.4399C93.985 16.0193 91.2092 13.2561 87.7731 13.2561Z" fill="#785AFF"></path> <path d="M123.001 38.8802L112.729 26.05L122.915 13.2441H115.212L105.894 24.9788V13.2441H99.6328V38.8802H105.894V27.1578L115.285 38.8802H123.001Z" fill="#785AFF"></path> <path d="M12.5095 4.63782H6.24863V13.2319H0V19.4522H6.24863V32.8059C6.24863 36.1534 8.97552 38.8802 12.3505 38.8802H18.6725V32.6598H12.4973V19.4522H18.6725V13.2319H12.4973V4.63782H12.5095Z" fill="#785AFF"></path> <path d="M89.7305 8.95925C92.2157 8.95925 94.2304 6.95365 94.2304 4.47962C94.2304 2.0056 92.2157 0 89.7305 0C87.2452 0 85.2305 2.0056 85.2305 4.47962C85.2305 6.95365 87.2452 8.95925 89.7305 8.95925Z" fill="#785AFF"></path> </svg>